<?xml version="1.0" standalone="no"?>
<!DOCTYPE svg PUBLIC "-//W3C//DTD SVG 20010904//EN"
 "http://www.w3.org/TR/2001/REC-SVG-20010904/DTD/svg10.dtd">
<svg version="1.0" xmlns="http://www.w3.org/2000/svg"
 width="1191.000000pt" height="1191.000000pt" viewBox="0 0 1191.000000 1191.000000"
 preserveAspectRatio="xMidYMid meet">
<metadata>
Created by potrace 1.14, written by Peter Selinger 2001-2017
</metadata>
<g transform="translate(0.000000,1191.000000) scale(0.100000,-0.100000)"
fill="#000000" stroke="none">
<path d="M5588 11774 c-4 -3 -14 -7 -25 -9 -10 -2 -18 -4 -18 -5 0 -1 -38 -1
-85 -2 -47 0 -89 -4 -95 -8 -5 -4 -36 -7 -67 -6 -32 0 -60 -4 -62 -9 -2 -6
-27 -10 -57 -9 -29 1 -65 -2 -81 -7 -19 -5 -28 -4 -29 4 0 7 -4 3 -9 -8 -5
-11 -9 -15 -9 -9 -1 7 -8 14 -15 17 -9 4 -13 1 -10 -6 2 -7 -6 -13 -23 -13
-56 -3 -83 -9 -83 -17 0 -5 -13 -6 -30 -2 -16 4 -30 2 -30 -3 0 -11 -30 -9
-49 3 -9 5 -12 4 -7 -3 3 -6 2 -13 -4 -17 -5 -3 -10 0 -10 7 0 8 -3 9 -8 3 -4
-6 -14 -10 -22 -10 -8 1 -24 -3 -35 -8 -18 -9 -35 -13 -78 -16 -10 0 -16 -5
-13 -9 6 -11 -25 -9 -43 3 -10 6 -12 4 -7 -4 5 -8 3 -12 -5 -10 -26 3 -40 -1
-34 -11 3 -5 -7 -8 -25 -5 -16 2 -30 0 -30 -5 0 -4 -11 -7 -25 -5 -14 1 -28
-2 -31 -7 -3 -4 -10 -6 -15 -3 -5 4 -9 1 -9 -4 0 -6 -5 -11 -11 -11 -5 0 -7 6
-3 13 4 6 -2 3 -14 -7 -17 -14 -22 -16 -22 -5 -1 11 -3 11 -13 -2 -7 -9 -20
-15 -29 -13 -10 1 -18 -2 -18 -7 0 -5 -12 -8 -27 -7 -16 1 -39 -5 -53 -12 -14
-8 -34 -15 -45 -17 -11 -2 -22 -8 -23 -14 -3 -6 -10 -5 -20 3 -13 11 -14 11
-8 -1 6 -9 5 -12 -5 -9 -8 3 -20 -2 -27 -11 -8 -9 -11 -10 -7 -3 3 6 1 12 -4
12 -6 0 -11 -4 -11 -9 0 -5 -15 -13 -32 -16 -18 -4 -38 -11 -44 -17 -7 -5 -16
-8 -20 -7 -18 4 -73 -14 -69 -21 3 -5 -11 -7 -30 -6 -26 2 -33 0 -25 -8 7 -9
1 -12 -20 -10 -17 1 -30 -1 -30 -5 0 -3 -9 -12 -21 -19 -12 -8 -18 -9 -14 -3
3 6 2 11 -4 11 -5 0 -11 -5 -13 -10 -2 -6 -13 -12 -26 -13 -12 0 -22 -4 -22
-7 0 -3 -9 -11 -21 -18 -17 -11 -20 -11 -13 0 6 10 5 11 -7 1 -9 -7 -24 -14
-35 -17 -32 -6 -84 -30 -84 -38 0 -4 -7 -5 -15 -2 -8 4 -15 2 -15 -4 0 -5 -12
-13 -26 -16 -15 -4 -33 -13 -40 -21 -8 -8 -23 -12 -34 -10 -11 2 -20 -2 -20
-8 0 -7 -11 -17 -25 -24 -19 -8 -23 -8 -18 0 3 7 -4 3 -17 -8 -13 -11 -20 -14
-16 -7 4 6 2 12 -3 12 -6 0 -11 -4 -11 -9 0 -5 -12 -16 -26 -26 -15 -9 -23
-12 -19 -5 5 8 1 8 -13 -1 -12 -7 -19 -17 -16 -21 3 -4 -2 -5 -10 -2 -9 3 -16
1 -16 -5 0 -6 -3 -10 -7 -9 -12 3 -83 -33 -83 -42 0 -7 -33 -22 -55 -24 -5 -1
-15 -8 -22 -16 -7 -8 -13 -10 -13 -5 0 6 -5 3 -10 -5 -9 -13 -11 -13 -21 0
-10 13 -10 13 -6 0 2 -8 -7 -24 -21 -34 -15 -12 -22 -14 -17 -5 5 8 1 7 -12
-4 -11 -9 -22 -14 -26 -11 -3 3 -10 -4 -16 -15 -6 -11 -17 -18 -25 -15 -7 3
-16 -2 -20 -11 -3 -9 -10 -13 -16 -10 -6 3 -13 -1 -16 -9 -3 -9 -10 -13 -15
-10 -5 3 -9 1 -9 -3 0 -5 -18 -16 -40 -26 -22 -9 -40 -22 -40 -28 0 -6 -7 -8
-16 -5 -8 3 -13 2 -10 -2 5 -9 -57 -50 -62 -42 -2 3 -8 -3 -13 -12 -6 -10 -17
-18 -24 -18 -8 0 -15 -4 -15 -10 0 -5 -7 -10 -16 -10 -8 0 -13 -4 -10 -9 3 -5
-4 -11 -15 -14 -14 -4 -18 -10 -14 -19 6 -10 5 -10 -5 -1 -11 10 -18 7 -36
-14 -14 -16 -28 -24 -38 -20 -9 4 -15 3 -15 -1 3 -20 -2 -33 -11 -27 -5 3 -10
1 -10 -5 0 -7 -7 -10 -14 -7 -11 4 -13 1 -9 -11 3 -9 3 -14 -1 -10 -8 6 -33
-11 -67 -46 -12 -12 -19 -15 -19 -7 0 7 -5 9 -11 6 -6 -4 -8 -10 -5 -13 6 -5
-33 -37 -44 -36 -3 0 -23 -18 -44 -40 -21 -23 -35 -34 -31 -26 5 8 -9 -3 -31
-25 -21 -22 -37 -44 -36 -49 2 -5 -5 -3 -15 4 -10 8 -15 11 -12 7 8 -9 -43
-65 -53 -59 -5 2 -8 -4 -8 -13 0 -9 -4 -14 -9 -10 -5 3 -12 -4 -16 -15 -4 -11
-11 -18 -16 -15 -5 4 -12 -1 -15 -9 -3 -9 -10 -16 -15 -16 -15 0 -141 -129
-135 -138 3 -5 -4 -9 -17 -8 -16 1 -21 -4 -19 -18 2 -11 -1 -15 -7 -11 -6 3
-15 -4 -20 -17 -6 -13 -10 -20 -10 -15 -1 4 -35 -26 -75 -68 -41 -41 -80 -75
-85 -75 -6 0 -8 -8 -4 -17 3 -10 3 -15 -1 -11 -10 8 -100 -77 -94 -88 4 -11
-79 -93 -87 -86 -4 5 -6 -2 -5 -23 0 -3 -22 -28 -50 -56 -49 -49 -66 -74 -32
-48 15 13 16 12 3 -3 -7 -10 -19 -18 -25 -18 -7 0 -22 -17 -34 -39 -12 -21
-33 -46 -47 -55 -14 -9 -23 -21 -20 -27 4 -5 -1 -12 -9 -15 -9 -3 -16 -13 -16
-20 0 -8 -7 -17 -15 -20 -8 -4 -15 -13 -15 -21 0 -8 -5 -11 -12 -7 -6 4 -8 3
-4 -4 3 -6 -1 -18 -10 -26 -8 -9 -13 -16 -9 -16 4 0 0 -7 -9 -15 -8 -8 -19
-15 -25 -15 -6 0 -8 -7 -5 -15 4 -8 -1 -17 -10 -21 -9 -3 -13 -10 -10 -15 3
-5 0 -9 -6 -9 -6 0 -8 -4 -5 -10 3 -5 -1 -10 -10 -10 -9 0 -13 -5 -10 -10 3
-6 -1 -13 -9 -16 -9 -3 -14 -10 -11 -14 7 -11 -5 -41 -14 -36 -3 2 -15 -8 -26
-23 -12 -16 -14 -22 -4 -16 8 6 7 3 -3 -7 -10 -9 -18 -21 -18 -27 0 -6 -5 -11
-12 -11 -6 0 -8 -3 -5 -7 4 -3 -3 -17 -15 -31 -13 -13 -23 -27 -23 -30 0 -4
-4 -6 -8 -4 -5 1 -6 -2 -2 -8 3 -5 2 -10 -3 -10 -6 0 -8 -9 -5 -20 4 -16 0
-20 -18 -20 -19 0 -21 -2 -9 -10 11 -7 11 -10 2 -10 -7 0 -10 -4 -7 -10 3 -5
1 -10 -5 -10 -6 0 -8 -4 -5 -10 3 -5 -1 -10 -11 -10 -13 0 -14 -3 -5 -14 10
-11 6 -16 -16 -24 -22 -8 -24 -11 -8 -12 19 -1 19 -1 2 -11 -9 -6 -15 -14 -12
-19 3 -4 -2 -11 -11 -14 -8 -3 -12 -10 -9 -16 3 -5 1 -10 -5 -10 -6 0 -8 -5
-4 -11 3 -6 0 -15 -7 -20 -8 -4 -14 -13 -14 -18 0 -6 -9 -17 -20 -26 -11 -9
-13 -13 -5 -9 13 7 13 5 1 -9 -7 -9 -10 -17 -7 -17 4 0 0 -7 -8 -16 -9 -8 -14
-20 -11 -25 4 -5 0 -6 -8 -3 -10 3 -14 -2 -13 -18 1 -13 -5 -30 -14 -38 -8 -8
-15 -21 -16 -27 -2 -29 -4 -34 -12 -29 -5 3 -9 -1 -10 -9 -1 -8 -3 -22 -4 -30
-1 -8 -4 -15 -8 -15 -3 0 -6 -10 -7 -22 -1 -12 -9 -26 -18 -30 -8 -5 -13 -13
-10 -19 4 -5 1 -9 -4 -9 -6 0 -11 -9 -11 -20 0 -12 -7 -20 -17 -20 -13 0 -15
-2 -5 -8 13 -9 6 -42 -8 -42 -5 0 -7 -9 -5 -20 2 -11 0 -18 -6 -15 -5 4 -10
-1 -10 -9 -3 -33 -19 -67 -29 -61 -4 2 -5 -7 -2 -20 2 -15 0 -25 -7 -25 -7 0
-10 -4 -7 -9 8 -12 -4 -42 -14 -36 -4 3 -8 -1 -7 -8 1 -34 -4 -48 -15 -41 -7
5 -9 2 -5 -9 3 -8 0 -20 -7 -26 -8 -7 -11 -22 -8 -38 4 -20 2 -24 -9 -18 -8 5
-11 5 -7 0 4 -4 2 -15 -5 -23 -9 -13 -9 -14 1 -8 17 10 15 -2 -3 -20 -18 -19
-20 -38 -2 -29 6 4 3 -1 -7 -9 -11 -9 -16 -16 -12 -16 5 0 2 -8 -5 -17 -8 -9
-9 -14 -3 -10 6 3 11 0 11 -8 0 -8 -5 -13 -11 -12 -6 1 -10 -6 -8 -15 2 -10
-2 -18 -9 -18 -6 0 -9 -8 -6 -20 3 -11 2 -18 -3 -15 -4 3 -11 -12 -15 -32 -4
-21 -12 -47 -18 -58 -6 -11 -10 -31 -8 -44 2 -15 -1 -21 -8 -17 -6 4 -11 2
-11 -3 0 -6 5 -11 12 -11 6 0 3 -7 -8 -16 -10 -8 -13 -13 -6 -9 6 3 12 1 12
-4 0 -6 -4 -11 -10 -11 -5 0 -7 -6 -4 -13 3 -8 -2 -19 -10 -26 -7 -6 -12 -20
-9 -30 3 -10 0 -22 -7 -26 -8 -5 -8 -10 0 -20 8 -10 5 -17 -12 -29 -12 -9 -17
-16 -10 -16 6 0 12 -7 12 -15 0 -8 -5 -15 -11 -15 -5 0 -9 -8 -7 -18 2 -11 -4
-27 -12 -37 -13 -17 -13 -18 0 -10 12 7 13 6 3 -7 -7 -8 -10 -18 -6 -22 4 -4
1 -11 -7 -16 -13 -8 -13 -10 -1 -10 11 0 10 -4 -5 -16 -10 -8 -14 -13 -8 -10
7 3 12 -4 12 -19 0 -14 -4 -25 -8 -25 -4 0 -7 -14 -8 -31 0 -17 -5 -36 -11
-43 -5 -6 -8 -21 -7 -31 2 -11 -3 -31 -11 -44 -8 -13 -10 -20 -4 -17 15 10 14
-7 -1 -23 -10 -11 -10 -13 0 -7 6 4 12 2 12 -3 0 -6 -4 -11 -9 -11 -5 0 -9
-19 -9 -42 0 -63 -1 -70 -12 -63 -7 4 -9 -13 -6 -49 2 -35 0 -56 -7 -56 -6 0
-7 -3 -4 -7 4 -3 2 -12 -4 -20 -9 -10 -8 -13 1 -13 8 0 9 -4 3 -12 -11 -15
-11 -28 1 -46 4 -7 3 -19 -4 -27 -7 -8 -9 -15 -4 -15 5 0 2 -5 -6 -10 -8 -5
-10 -10 -4 -10 8 0 9 -11 4 -35 -4 -19 -5 -33 -1 -30 14 8 6 -72 -9 -90 -12
-15 -12 -17 -1 -10 11 6 12 5 5 -6 -11 -18 -12 -749 -1 -749 5 0 5 -4 2 -10
-3 -5 -3 -10 2 -10 4 0 8 -16 8 -35 0 -19 -2 -35 -5 -35 -3 0 -5 -11 -5 -24 0
-13 3 -22 7 -20 3 2 4 -15 1 -38 -4 -26 -2 -39 4 -35 13 8 13 -25 -1 -42 -8
-11 -8 -13 2 -7 6 4 12 3 12 -3 0 -5 -6 -12 -12 -14 -10 -4 -9 -6 1 -6 11 -1
11 -4 1 -16 -10 -13 -10 -19 2 -33 8 -9 14 -33 13 -52 -1 -19 4 -45 12 -57 11
-18 11 -23 1 -23 -8 0 -9 -3 -3 -8 6 -4 10 -18 9 -32 -2 -30 5 -52 15 -45 4 2
8 -2 8 -9 0 -9 -7 -12 -16 -8 -14 5 -14 3 -2 -11 10 -12 10 -17 2 -17 -8 0 -7
-5 3 -15 8 -8 13 -27 12 -43 -2 -15 1 -30 6 -33 5 -3 10 -24 11 -46 1 -23 5
-39 9 -37 4 2 6 -9 6 -25 -1 -17 5 -38 13 -48 9 -11 10 -14 2 -9 -9 5 -13 0
-13 -14 0 -12 5 -18 10 -15 6 4 10 -6 10 -24 0 -16 4 -33 10 -36 15 -9 12 -37
-2 -30 -7 4 -6 1 3 -7 8 -7 15 -25 14 -40 -1 -16 2 -28 7 -28 4 0 8 -13 8 -29
0 -16 4 -31 10 -33 5 -1 10 -20 12 -40 1 -21 6 -38 12 -38 5 0 6 -3 3 -6 -3
-4 -2 -16 4 -27 8 -14 8 -18 0 -13 -6 4 -11 2 -11 -3 0 -6 6 -11 13 -11 7 0
14 -12 15 -27 1 -15 6 -29 10 -32 7 -5 10 -20 14 -68 1 -7 5 -10 10 -7 8 5 13
-25 9 -55 -2 -8 2 -10 10 -5 8 5 11 2 6 -8 -3 -9 0 -21 6 -28 9 -10 9 -11 -3
-6 -8 4 -7 1 3 -7 10 -9 18 -18 18 -21 -3 -24 0 -36 9 -31 6 3 7 -1 4 -10 -4
-8 -1 -22 6 -30 7 -8 10 -22 6 -30 -3 -8 0 -15 7 -15 8 0 8 -3 -2 -9 -11 -7
-9 -10 8 -16 14 -4 20 -12 17 -21 -3 -8 -1 -14 4 -14 5 0 7 -7 4 -15 -4 -9 0
-15 7 -15 11 0 11 -3 -1 -10 -13 -8 -11 -11 7 -16 13 -4 20 -10 17 -15 -3 -5
1 -23 10 -39 8 -17 10 -28 5 -25 -5 3 -6 -1 -3 -9 3 -9 10 -13 15 -10 5 3 6
-2 3 -10 -3 -9 -1 -16 6 -16 6 0 9 -4 6 -9 -3 -4 3 -16 13 -25 12 -11 16 -25
13 -41 -3 -17 1 -27 12 -31 9 -3 13 -11 10 -16 -4 -6 -2 -13 4 -17 6 -3 12
-13 14 -21 2 -8 8 -20 15 -28 7 -7 9 -20 6 -29 -4 -11 -3 -14 5 -9 11 7 16
-11 15 -51 -1 -7 3 -11 7 -8 10 6 40 -57 33 -69 -3 -5 -1 -6 5 -2 8 5 12 0 12
-13 0 -12 5 -21 10 -21 6 0 10 -7 10 -15 0 -8 4 -15 9 -15 6 0 8 -9 6 -20 -2
-11 1 -19 8 -17 6 1 13 -8 15 -21 2 -12 8 -22 13 -22 5 0 8 -3 8 -7 -3 -21 2
-33 13 -27 8 5 9 0 6 -14 -4 -12 -2 -20 2 -17 9 5 26 -33 22 -48 -1 -5 2 -6 8
-2 5 3 10 1 10 -5 0 -6 7 -19 16 -27 13 -13 13 -17 2 -24 -10 -7 -9 -9 5 -9 9
0 17 -7 17 -16 0 -8 4 -13 8 -10 4 2 9 -5 9 -16 1 -11 11 -30 22 -42 12 -12
21 -26 21 -30 0 -4 7 -14 16 -23 8 -9 13 -21 10 -28 -2 -7 5 -15 17 -19 12 -3
18 -8 14 -12 -6 -6 37 -71 58 -86 6 -4 6 -8 1 -8 -6 0 0 -9 11 -20 12 -10 24
-28 28 -40 3 -11 12 -20 18 -20 7 0 6 -4 -3 -10 -13 -8 -12 -10 3 -10 9 0 23
-11 29 -25 6 -14 15 -25 20 -25 5 0 6 -4 3 -10 -3 -5 -1 -10 6 -10 7 0 9 -3 6
-6 -3 -4 5 -15 18 -26 14 -11 25 -29 25 -40 0 -15 4 -18 17 -14 10 4 14 4 11
0 -4 -3 0 -13 8 -21 8 -8 12 -19 9 -24 -4 -5 2 -9 12 -9 10 0 23 -11 30 -25 8
-19 8 -23 0 -19 -7 4 3 -6 21 -23 17 -16 32 -33 32 -37 0 -5 14 -21 31 -37 17
-16 27 -29 23 -29 -5 0 -1 -5 9 -11 9 -5 17 -17 17 -24 0 -8 7 -15 16 -15 8 0
12 -4 9 -10 -3 -5 -1 -10 4 -10 14 0 51 -37 51 -50 0 -5 5 -10 10 -10 6 0 10
-7 10 -16 0 -8 5 -12 10 -9 5 3 10 2 10 -2 0 -14 68 -82 74 -75 3 3 6 0 6 -5
0 -13 66 -83 72 -77 3 2 11 -7 18 -21 7 -13 22 -27 33 -31 16 -5 17 -8 6 -15
-10 -6 -8 -9 9 -9 12 0 22 -5 22 -10 0 -16 52 -70 67 -70 7 0 13 -7 13 -15 0
-9 9 -19 21 -23 11 -5 21 -12 22 -17 1 -6 5 -9 10 -7 4 1 7 -2 7 -8 0 -14 82
-90 97 -90 7 0 13 -7 13 -16 0 -8 4 -13 9 -10 9 6 54 -40 64 -67 4 -10 12 -15
17 -12 11 7 50 -30 50 -47 0 -5 4 -7 9 -3 6 3 14 -3 20 -12 8 -14 10 -15 11
-3 0 8 12 -2 27 -23 20 -28 31 -36 46 -31 13 4 17 2 13 -5 -4 -6 -2 -11 5 -11
7 0 9 -3 5 -7 -4 -4 8 -14 26 -23 18 -9 32 -22 30 -29 -1 -7 2 -10 8 -6 5 3
10 1 10 -4 0 -6 6 -11 13 -11 8 0 31 -17 53 -38 21 -20 32 -28 24 -17 -8 11 3
4 24 -15 22 -19 35 -28 31 -20 -5 8 4 2 18 -13 15 -16 32 -25 39 -21 6 4 8 3
4 -4 -3 -6 7 -16 24 -24 16 -7 30 -18 30 -25 0 -7 7 -10 17 -6 12 5 15 2 10
-9 -4 -12 -1 -14 14 -11 10 3 19 0 19 -6 0 -6 6 -11 14 -11 8 0 22 -10 30 -22
9 -12 16 -17 16 -9 0 7 11 0 24 -16 13 -16 34 -29 46 -30 12 -1 30 -11 39 -22
10 -11 21 -18 25 -14 3 3 6 1 6 -6 0 -7 6 -11 13 -8 6 2 20 -5 29 -15 9 -11
21 -17 26 -14 6 3 13 -1 16 -10 3 -9 11 -14 18 -12 6 2 21 -6 34 -19 13 -13
32 -23 42 -23 11 0 25 -7 32 -15 7 -9 19 -14 26 -11 7 3 15 -2 18 -11 4 -8 13
-13 21 -9 8 3 14 1 12 -3 -1 -5 2 -9 6 -9 5 -1 15 -9 23 -19 7 -10 14 -14 14
-10 0 5 16 -1 36 -13 19 -12 38 -20 41 -16 3 3 13 -3 22 -13 9 -10 24 -17 34
-15 9 1 15 -2 11 -7 -5 -9 9 -13 34 -10 6 1 12 -3 12 -9 0 -5 9 -10 20 -10 11
0 20 -4 20 -10 0 -5 7 -10 16 -10 8 0 22 -7 30 -15 8 -8 22 -11 31 -8 12 5 15
2 11 -8 -4 -11 1 -15 23 -13 19 1 29 -3 29 -12 0 -8 6 -11 15 -8 8 4 15 2 15
-3 0 -5 10 -9 22 -10 11 -1 25 -8 29 -15 5 -7 9 -9 9 -4 0 6 5 5 11 -1 6 -6
18 -9 25 -6 8 3 14 1 14 -5 0 -9 31 -23 56 -26 6 -1 19 -8 28 -15 10 -8 27
-16 39 -17 58 -8 69 -11 77 -24 4 -7 15 -10 24 -7 9 4 16 2 16 -4 0 -6 5 -7
10 -4 6 4 17 1 25 -5 8 -6 19 -9 25 -5 5 3 13 -1 16 -10 4 -9 13 -14 20 -11 8
3 14 0 14 -7 0 -8 4 -6 10 3 8 13 14 8 12 -11 -1 -3 10 -5 24 -3 13 1 30 -3
37 -10 7 -7 17 -11 24 -9 6 2 14 0 17 -6 4 -6 13 -8 20 -5 8 3 17 1 21 -5 3
-6 15 -11 26 -11 11 0 18 -4 15 -8 -2 -4 8 -7 22 -6 15 1 33 -3 40 -9 6 -5 12
-6 12 -2 0 4 7 2 15 -5 8 -7 32 -14 53 -16 20 -3 43 -5 50 -6 6 -1 12 -6 12
-11 0 -5 9 -7 20 -4 11 3 20 1 20 -5 0 -5 4 -7 9 -4 5 4 12 0 14 -6 4 -10 6
-10 6 0 1 9 6 10 19 4 9 -5 25 -8 35 -7 9 2 17 -1 17 -6 0 -6 4 -7 10 -4 6 3
10 1 10 -5 0 -6 4 -8 10 -5 5 3 10 1 10 -4 0 -13 22 -10 32 4 5 6 8 4 8 -5 0
-11 11 -15 45 -14 25 0 45 -3 45 -7 0 -5 6 -6 14 -3 7 3 21 -2 30 -11 9 -9 16
-12 16 -7 0 11 14 10 43 -3 9 -4 24 -4 33 -1 9 4 13 2 8 -5 -4 -8 1 -9 16 -4
15 5 26 2 31 -6 8 -12 11 -11 19 1 8 12 12 12 18 3 4 -7 33 -14 63 -15 29 -2
60 -9 67 -15 10 -9 19 -10 33 -3 13 8 19 7 19 0 0 -7 6 -8 19 -1 14 8 22 7 31
-4 10 -12 16 -13 26 -4 11 9 14 9 14 0 0 -9 5 -9 21 -1 15 8 24 8 34 0 10 -8
15 -8 20 1 6 8 9 8 15 0 4 -8 42 -13 101 -14 52 0 96 -4 99 -9 8 -10 172 -14
188 -5 6 5 12 5 12 0 0 -10 92 -9 108 1 7 4 12 4 12 -1 0 -10 213 -9 229 1 6
4 11 4 11 -1 0 -12 134 -10 142 2 5 6 8 5 8 -4 0 -11 3 -11 15 -1 8 7 15 8 15
3 0 -5 9 -9 20 -9 11 0 20 3 20 6 0 9 10 10 110 15 47 2 91 4 98 4 7 1 11 4 8
9 -5 9 58 7 73 -2 5 -4 12 -2 15 2 3 5 18 7 32 4 18 -3 25 -1 20 6 -3 6 -2 14
4 17 6 4 9 1 8 -5 -2 -7 5 -14 15 -15 9 -2 17 2 17 8 0 8 3 7 9 -2 6 -9 10
-10 16 -2 5 9 10 9 20 1 9 -8 14 -7 18 3 4 10 22 14 57 14 33 0 55 5 61 14 8
12 11 12 19 -1 9 -13 10 -13 10 0 0 13 1 13 10 0 6 -9 10 -11 10 -3 0 7 7 10
15 7 8 -4 15 -1 15 6 0 9 4 9 17 -1 15 -12 16 -12 10 6 -7 20 -7 20 8 1 8 -11
15 -14 15 -7 0 7 5 9 10 6 6 -3 10 -2 10 4 0 5 11 8 25 5 15 -3 25 0 25 7 0 6
9 9 20 6 11 -3 20 -2 20 2 0 3 18 7 41 8 22 1 48 8 57 15 13 11 15 11 7 -2 -7
-12 -6 -13 7 -3 8 7 18 9 22 5 4 -4 14 2 22 12 11 16 16 17 29 6 12 -10 16 -9
21 4 5 12 10 13 25 5 15 -7 21 -6 25 5 3 9 15 13 30 10 14 -3 24 0 24 7 0 6 6
9 14 6 8 -3 22 0 32 8 10 7 29 11 41 9 13 -3 23 0 23 5 0 5 9 7 20 4 11 -3 20
0 20 6 0 6 16 11 36 11 24 0 33 4 28 12 -5 7 -2 9 8 5 9 -3 21 0 27 6 9 9 14
8 21 -3 8 -13 10 -12 10 3 0 10 4 16 9 13 5 -3 21 1 37 9 15 7 32 11 37 8 6
-3 7 -1 3 5 -4 7 -4 12 1 13 9 1 62 8 81 10 6 1 12 7 12 12 0 5 6 7 13 4 7 -3
21 1 31 8 10 7 29 11 43 9 19 -4 24 -1 20 10 -4 11 0 14 16 10 11 -2 24 1 27
7 4 5 20 11 36 13 16 1 28 7 27 12 -1 6 10 10 25 10 17 -1 26 4 24 12 -1 8 2
11 9 6 6 -3 15 0 20 7 7 11 9 11 9 1 0 -7 5 -10 10 -7 6 4 8 10 5 15 -3 4 4 6
15 3 11 -3 20 0 20 6 0 6 14 11 31 11 20 0 28 4 23 11 -4 7 -1 10 7 7 8 -3 20
2 28 10 8 7 24 12 37 9 15 -3 21 0 17 10 -3 9 3 13 20 13 14 0 29 5 32 10 4 6
11 7 17 4 6 -4 8 -2 4 4 -3 6 -2 13 4 17 5 3 10 0 10 -7 0 -8 5 -6 11 5 6 9
14 15 20 12 5 -4 9 -2 9 3 0 6 15 13 34 16 19 4 37 14 40 22 5 14 9 14 23 3
14 -12 16 -12 11 2 -3 9 -1 16 5 16 23 1 97 40 90 47 -4 4 0 4 10 0 12 -4 17
-1 17 10 0 10 6 13 15 10 8 -4 15 -1 15 6 0 6 5 8 10 5 6 -3 13 1 16 9 3 9 10
13 15 10 5 -3 9 0 9 7 0 7 3 9 7 6 3 -4 15 1 26 10 11 10 17 12 13 6 -5 -9 -2
-11 8 -7 9 3 16 14 16 23 0 14 2 14 10 1 8 -13 10 -13 10 2 0 12 6 16 20 13
11 -2 18 -1 16 4 -3 4 -1 13 5 21 5 9 9 10 9 3 0 -6 9 -9 21 -6 16 4 17 8 7
14 -9 6 -6 9 10 9 13 0 20 4 17 10 -3 5 0 7 8 4 8 -3 24 4 35 16 11 12 27 23
36 24 9 1 23 11 32 22 8 10 13 13 9 7 -4 -8 -1 -11 9 -7 9 3 14 11 13 17 -1 7
4 11 11 9 6 -1 12 3 12 9 0 5 4 8 9 5 5 -4 11 -2 13 3 1 5 10 11 18 13 8 2 22
11 31 20 9 10 19 15 23 11 3 -3 6 -1 6 5 0 7 7 12 15 12 8 0 15 7 15 15 0 13
19 20 43 16 5 -1 6 3 2 9 -3 5 1 10 9 10 9 0 21 9 28 20 7 11 18 20 24 20 6 0
21 9 34 20 12 11 26 17 31 14 5 -3 6 2 3 11 -4 10 -2 15 7 13 8 -2 13 2 12 9
-2 7 6 10 17 8 12 -2 18 0 15 6 -4 5 -1 9 5 9 6 0 23 12 37 27 15 16 23 21 18
13 -4 -8 7 0 24 19 18 18 35 31 38 28 7 -8 32 16 26 26 -2 4 3 7 12 7 9 0 14
4 10 9 -3 5 -1 12 5 16 5 3 10 1 10 -6 0 -6 12 1 27 17 15 16 31 28 36 26 5
-1 6 2 2 8 -3 5 2 13 12 17 10 4 26 16 36 27 10 12 24 21 30 21 7 0 12 5 12
11 0 13 25 38 48 47 9 3 17 11 17 17 0 6 4 9 9 6 5 -3 11 4 14 15 3 12 10 18
16 14 6 -3 11 1 11 10 0 9 5 13 10 10 6 -3 10 -1 10 5 0 14 26 41 32 35 3 -3
11 6 18 20 7 14 19 25 26 25 7 0 16 9 19 20 4 11 11 18 16 15 5 -4 9 1 9 10 0
10 5 13 12 9 8 -5 9 -2 5 9 -3 9 -3 16 1 16 19 -3 33 2 27 10 -3 5 4 12 15 16
11 4 18 11 15 16 -4 5 1 9 9 9 9 0 15 6 14 13 -2 6 2 11 7 10 6 0 16 5 23 13
7 8 10 14 7 14 -3 0 0 6 7 14 7 8 17 11 22 8 5 -3 7 2 3 11 -3 9 -3 16 1 15
14 -3 42 14 36 23 -3 5 2 9 10 9 9 0 16 7 16 15 0 8 5 15 11 15 5 0 7 5 4 10
-4 6 -3 10 2 9 18 -3 34 2 29 9 -3 5 6 21 20 38 14 16 22 22 18 14 -4 -9 -3
-12 2 -7 5 5 9 12 9 16 0 5 15 22 34 40 18 17 30 31 27 31 -3 0 12 18 34 40
23 23 38 45 35 50 -4 6 2 10 11 10 10 0 15 3 11 6 -8 9 16 33 27 26 5 -3 7 2
3 11 -4 11 -1 17 8 17 9 0 12 6 9 15 -5 11 -2 13 12 8 11 -4 15 -3 11 4 -4 6
0 16 8 23 8 7 12 17 8 23 -4 6 0 8 10 4 12 -4 17 -1 17 11 0 23 29 64 40 57 5
-3 11 8 15 25 4 17 10 28 15 25 4 -3 13 9 20 26 8 19 18 28 27 25 8 -3 11 -1
8 5 -4 5 -1 16 5 24 7 8 10 15 6 15 -3 0 3 9 14 20 11 11 20 27 20 35 0 8 5
15 11 15 5 0 7 -6 3 -12 -4 -8 -3 -10 2 -5 5 5 9 12 9 15 0 15 36 82 48 89 7
4 19 22 27 38 8 17 20 38 28 47 8 9 11 22 6 29 -4 7 -3 10 2 7 11 -7 35 17 27
26 -3 3 2 8 11 12 9 3 14 10 11 14 -3 5 -1 11 5 15 5 3 10 15 10 26 0 11 4 18
9 14 5 -3 15 10 22 29 7 19 17 32 22 29 6 -4 8 3 5 15 -4 13 0 23 9 26 8 3 12
10 9 15 -4 5 -2 11 4 13 6 2 12 14 15 28 3 14 12 30 20 36 8 6 15 19 15 28 0
9 7 19 15 22 8 4 12 10 9 15 -3 5 1 9 8 9 9 0 9 3 -2 10 -13 8 -13 10 2 10 12
0 16 6 13 21 -3 15 0 19 10 15 9 -3 12 0 9 8 -3 7 2 19 10 26 9 7 13 16 10 21
-2 5 2 19 11 32 8 13 13 26 10 29 -3 3 1 11 9 17 8 7 13 18 10 26 -3 7 0 16 7
21 8 5 10 3 4 -6 -6 -9 -4 -11 4 -6 7 5 10 11 7 14 -3 3 -1 11 5 19 6 7 8 13
3 13 -4 0 1 7 12 16 10 8 13 13 7 9 -16 -8 -16 -3 -1 30 6 14 15 25 20 25 4 0
8 7 8 15 0 8 6 15 13 15 8 0 7 4 -3 10 -10 6 -11 10 -2 10 6 0 11 3 11 8 -4
21 2 43 10 38 4 -3 8 5 7 17 -1 25 15 48 28 39 5 -3 6 0 2 7 -4 6 -2 19 6 28
11 15 11 16 -6 9 -19 -7 -19 -6 -2 13 11 12 15 25 10 33 -6 10 -5 10 9 0 14
-12 16 -11 12 7 -2 12 1 21 8 21 7 0 6 4 -3 10 -11 7 -11 10 -2 10 7 0 10 5 7
10 -3 6 -1 10 4 10 6 0 10 3 10 8 -4 22 2 42 11 37 6 -3 7 1 4 9 -4 10 -1 16
7 16 11 0 11 3 -1 10 -11 7 -11 10 -2 10 7 0 11 4 7 9 -3 5 -1 12 4 16 5 3 8
14 6 24 -2 11 3 22 12 25 8 3 13 12 10 19 -2 6 0 21 6 32 6 11 11 33 12 48 0
15 5 31 10 35 6 4 12 16 13 27 2 11 9 23 15 27 9 6 8 8 -2 8 -11 0 -11 3 -1
15 7 8 9 15 5 15 -4 0 -1 8 6 17 10 11 10 14 2 9 -18 -10 -16 2 3 21 8 9 13
22 10 29 -3 8 -1 14 4 14 6 0 9 3 9 8 -4 24 2 42 13 36 7 -4 8 -3 4 4 -11 18
-16 53 -7 47 5 -3 11 2 15 10 3 8 1 15 -5 15 -5 0 -3 13 5 29 9 16 12 31 9 35
-4 3 -1 6 6 6 7 0 10 4 6 9 -3 5 -1 12 4 15 5 4 8 18 5 32 -3 14 0 31 5 38 6
7 6 18 1 25 -5 9 -3 19 5 27 7 8 12 29 11 49 -1 25 2 34 11 30 16 -5 16 0 2
27 -8 16 -8 19 1 13 9 -5 10 -1 5 15 -4 13 -3 20 2 17 5 -3 8 12 7 34 -1 21 2
39 5 39 4 0 6 20 6 45 -1 24 2 42 7 39 8 -5 11 15 10 79 0 20 3 35 7 32 12 -7
8 49 -4 57 -6 5 -5 8 4 8 10 0 11 3 2 14 -8 9 -8 16 -2 20 6 4 8 13 4 21 -3 8
-1 15 4 15 5 0 9 42 8 93 -1 54 3 95 9 99 14 9 14 751 0 769 -6 8 -10 48 -9
89 1 41 -3 81 -9 89 -9 12 -8 13 4 7 8 -4 6 0 -4 8 -11 9 -15 16 -9 16 12 0
12 25 0 36 -3 4 -1 16 4 27 8 14 8 22 -1 27 -9 6 -9 9 0 15 8 5 7 12 -6 26
-10 11 -12 19 -5 19 12 0 6 60 -7 70 -4 3 -7 22 -7 44 1 21 -4 44 -10 50 -13
13 -8 39 6 31 5 -4 6 1 3 9 -3 9 -11 16 -17 16 -6 0 -7 3 -4 6 3 4 1 16 -5 28
-10 19 -9 20 5 8 14 -12 15 -10 4 17 -6 16 -14 28 -17 26 -9 -5 -6 27 3 42 4
6 2 13 -4 15 -6 2 -12 16 -12 31 -1 15 -5 27 -9 27 -3 0 -5 8 -3 18 1 9 -2 25
-7 35 -6 12 -5 17 4 17 9 0 9 3 -2 10 -8 5 -11 10 -5 10 5 0 4 5 -3 12 -8 8
-8 17 -1 31 8 14 8 17 0 13 -10 -7 -37 67 -32 91 1 6 -3 14 -9 18 -7 4 -7 12
0 26 8 14 8 19 -2 17 -6 -2 -13 3 -14 10 -1 6 -3 13 -4 15 -2 1 -4 17 -4 35
-1 19 -9 38 -17 43 -12 8 -12 10 1 19 8 5 10 10 4 10 -10 0 -12 6 -16 50 -1
11 -8 20 -15 20 -6 0 -10 9 -8 20 2 11 0 20 -6 20 -5 0 -9 5 -9 11 0 5 6 7 13
4 6 -4 4 0 -6 8 -9 8 -15 21 -12 29 4 9 -1 18 -9 21 -9 4 -13 15 -11 27 2 11
0 20 -6 20 -5 0 -9 14 -9 30 0 17 -5 30 -11 30 -5 0 -7 5 -4 10 3 6 0 10 -7
10 -9 0 -9 3 2 10 8 5 10 10 4 10 -7 0 -15 7 -18 16 -3 8 -2 12 3 9 5 -3 3 9
-6 25 -8 17 -13 34 -10 37 4 3 -5 21 -18 41 -13 19 -22 39 -19 44 3 4 0 8 -7
8 -7 0 -9 3 -6 7 4 3 1 13 -6 21 -10 13 -9 14 1 8 11 -7 12 -4 2 13 -6 12 -18
25 -26 28 -11 4 -12 9 -3 19 8 10 8 14 0 14 -6 0 -11 8 -11 18 -1 18 -24 55
-31 48 -2 -2 -5 10 -6 27 -1 17 -6 33 -10 36 -5 3 -9 13 -11 21 -2 8 -8 17
-13 18 -5 2 -9 12 -9 23 0 10 -5 19 -11 19 -6 0 -9 7 -6 15 4 8 2 17 -4 20 -5
4 -7 10 -5 14 3 4 -3 13 -14 21 -10 7 -16 19 -14 25 3 7 -1 19 -9 27 -8 8 -18
25 -22 38 -4 14 -16 37 -27 52 -11 16 -17 32 -14 36 3 5 -4 14 -14 22 -10 8
-17 17 -14 22 3 4 0 8 -6 8 -6 0 -9 4 -6 9 4 5 2 11 -4 13 -6 2 -12 14 -15 27
-2 14 -10 28 -16 32 -6 4 -8 12 -4 19 5 9 4 11 -3 6 -7 -4 -12 -1 -12 9 0 9
-4 13 -10 10 -5 -3 -7 0 -4 8 3 8 -2 20 -11 27 -8 7 -15 18 -15 25 0 8 -5 15
-10 17 -6 2 -12 13 -13 25 0 12 -4 20 -8 17 -4 -2 -13 4 -20 13 -11 13 -11 15
-1 9 11 -7 11 -4 0 13 -7 12 -16 21 -20 21 -5 0 -8 7 -8 15 0 8 -4 15 -10 15
-5 0 -9 3 -9 8 3 19 -2 33 -10 28 -10 -7 -24 22 -16 34 3 5 -3 11 -14 15 -10
3 -22 17 -25 31 -4 14 -11 22 -15 19 -5 -3 -7 3 -4 14 3 13 -2 20 -17 24 -15
4 -21 11 -17 21 4 10 1 16 -9 16 -8 0 -13 4 -10 8 3 5 -6 21 -20 36 -16 16
-23 33 -20 43 6 14 4 14 -11 2 -10 -7 -15 -10 -11 -5 4 5 -1 20 -12 34 -11 13
-17 28 -14 33 3 5 2 9 -3 8 -17 -3 -33 1 -32 9 3 19 -2 33 -11 27 -5 -3 -10 1
-10 9 0 9 -5 16 -12 16 -6 0 -9 3 -5 6 3 4 -7 20 -24 36 -16 16 -27 33 -24 38
3 5 -4 11 -15 15 -11 3 -20 13 -20 20 0 8 -5 17 -12 21 -7 5 -8 3 -3 -6 5 -9
4 -11 -4 -6 -6 4 -9 11 -6 16 6 10 -41 60 -55 60 -6 0 -9 3 -8 8 4 15 -14 52
-25 52 -7 0 -23 14 -37 30 -14 17 -32 30 -40 30 -11 0 -12 2 -2 8 10 7 8 13
-6 30 -11 12 -24 22 -31 22 -6 0 -11 10 -11 23 0 15 -3 18 -8 9 -6 -9 -12 -6
-22 12 -7 14 -17 23 -22 20 -4 -3 -8 2 -8 11 0 11 -5 15 -16 11 -8 -3 -13 -2
-9 3 7 13 -24 43 -37 35 -7 -4 -8 -2 -4 4 4 7 2 12 -5 12 -7 0 -10 3 -6 6 8 8
-18 34 -33 34 -6 0 -9 4 -6 9 3 5 -4 11 -15 14 -11 3 -23 15 -26 26 -5 19 -15
25 -35 22 -4 0 -5 6 -2 14 4 9 0 15 -10 15 -9 0 -15 3 -13 8 1 4 -1 7 -5 7 -4
0 -15 10 -23 23 -9 12 -21 20 -26 17 -5 -3 -6 1 -3 9 4 11 0 16 -11 16 -9 0
-13 5 -10 10 3 6 1 10 -5 10 -13 0 -40 25 -40 37 0 4 -13 17 -28 28 -27 19
-27 19 -13 0 8 -11 -1 -4 -19 15 -18 19 -36 34 -41 33 -4 -2 -5 5 -2 14 4 11
3 14 -5 9 -7 -4 -16 3 -23 18 -8 16 -18 23 -30 21 -17 -4 -24 6 -20 28 1 5 -3
6 -9 2 -5 -3 -10 -2 -10 4 0 10 -38 27 -52 23 -4 -1 -5 5 -2 13 4 9 0 15 -9
15 -9 0 -19 9 -22 20 -4 11 -15 20 -27 20 -11 0 -22 8 -25 20 -3 11 -9 17 -14
14 -5 -3 -9 0 -9 6 0 7 -7 9 -16 6 -12 -5 -15 -2 -10 10 4 12 2 15 -9 10 -9
-3 -15 0 -15 10 0 8 -4 13 -9 10 -5 -3 -22 7 -38 22 -16 16 -37 31 -46 35 -9
3 -17 11 -17 17 0 6 -4 8 -10 5 -5 -3 -10 -1 -10 4 0 6 -7 11 -15 11 -9 0 -18
7 -21 15 -4 8 -10 12 -15 9 -5 -3 -9 -1 -9 5 0 5 -9 13 -20 16 -11 3 -20 13
-20 20 0 8 -8 12 -20 10 -13 -2 -20 2 -20 11 0 8 -7 14 -15 14 -9 0 -18 6 -21
14 -3 8 -14 13 -25 11 -12 -3 -19 2 -19 12 0 10 -6 13 -16 9 -8 -3 -12 -2 -9
4 3 6 -1 10 -10 10 -9 0 -13 5 -10 10 3 6 -3 10 -14 10 -12 0 -21 4 -21 8 0 5
-18 17 -40 27 -22 10 -40 22 -40 28 0 5 -7 7 -15 3 -8 -3 -20 3 -27 12 -18 23
-76 55 -88 47 -6 -3 -10 0 -10 8 0 8 -8 21 -17 28 -11 10 -14 10 -9 2 9 -15
-3 -17 -24 -3 -8 5 -10 10 -5 10 8 1 -27 20 -45 24 -16 5 -56 31 -63 42 -4 7
-14 11 -22 8 -8 -4 -15 -1 -15 6 0 6 -4 8 -10 5 -5 -3 -10 -1 -10 4 0 6 -7 11
-16 11 -8 0 -13 4 -10 9 3 4 -6 7 -19 5 -14 -1 -23 2 -19 7 5 8 -9 13 -28 10
-5 0 -8 3 -8 8 0 5 -7 12 -16 15 -10 4 -13 2 -9 -7 4 -6 0 -4 -8 5 -9 12 -17
14 -25 8 -7 -6 -10 -7 -7 -3 7 9 -114 73 -138 73 -10 0 -15 4 -12 10 3 6 -1 7
-9 4 -9 -3 -16 -1 -16 6 0 6 -4 8 -10 5 -5 -3 -10 -1 -10 5 0 6 -4 9 -9 5 -5
-3 -17 2 -25 11 -9 9 -23 14 -30 11 -8 -3 -17 1 -20 9 -3 9 -10 13 -16 9 -5
-3 -27 3 -48 14 -22 11 -42 17 -46 14 -3 -4 -6 -1 -6 5 0 6 -7 9 -15 6 -9 -4
-18 1 -21 11 -4 9 -13 14 -20 11 -7 -3 -19 0 -26 7 -7 7 -22 12 -33 12 -11 -1
-22 3 -25 7 -3 4 -21 10 -40 13 -19 3 -37 10 -41 16 -3 5 -13 7 -22 3 -10 -3
-17 -1 -17 5 0 6 -5 11 -11 11 -5 0 -7 -6 -4 -12 4 -7 0 -5 -8 4 -8 10 -17 15
-20 11 -4 -3 -12 -2 -19 4 -7 5 -25 14 -40 21 -24 10 -26 9 -22 -6 3 -9 -1 -6
-9 7 -10 17 -16 20 -19 10 -3 -10 -9 -8 -23 8 -10 12 -22 20 -27 17 -5 -3 -15
0 -23 6 -12 10 -15 10 -15 0 0 -9 -4 -9 -17 1 -14 12 -16 12 -9 -1 7 -13 6
-13 -6 0 -7 8 -20 17 -28 19 -33 7 -46 10 -63 10 -10 1 -16 5 -13 9 3 4 -8 7
-25 6 -16 -1 -29 2 -29 7 0 5 -5 9 -11 9 -5 0 -7 -5 -3 -11 3 -6 -4 -4 -17 4
-13 8 -32 13 -41 12 -9 -2 -19 3 -22 10 -2 7 -16 11 -30 10 -14 -2 -26 0 -26
4 0 4 -10 8 -22 9 -74 5 -94 8 -99 16 -4 4 -21 9 -38 10 -17 0 -31 4 -31 8 0
5 -5 8 -11 8 -5 0 -7 -5 -3 -11 3 -6 -5 -3 -20 6 -25 17 -26 17 -20 -1 5 -17
4 -17 -5 -2 -8 12 -22 16 -51 14 -24 -2 -41 2 -44 9 -2 7 -17 11 -32 9 -16 -1
-35 3 -43 9 -12 10 -13 9 -6 -3 6 -12 5 -13 -6 -2 -7 6 -19 12 -27 12 -8 0
-10 -5 -6 -12 4 -7 -2 -4 -14 6 -16 14 -22 15 -22 6 0 -9 -5 -7 -16 6 -8 10
-13 13 -9 7 4 -9 -1 -13 -14 -13 -12 0 -21 6 -21 13 0 7 -3 8 -8 2 -9 -12 -52
-18 -52 -7 0 8 -41 13 -117 15 -24 1 -43 5 -43 9 0 4 -13 8 -30 8 -17 0 -30
-5 -30 -12 0 -6 -7 -3 -15 8 -8 10 -15 15 -15 9 0 -6 -23 -9 -55 -7 -30 2 -53
7 -50 11 6 10 -27 7 -44 -3 -8 -5 -16 -4 -21 4 -6 10 -9 9 -13 -1 -5 -12 -6
-12 -6 0 -1 11 -4 11 -17 0 -13 -10 -17 -10 -25 2 -7 12 -9 12 -9 -1 0 -13 -2
-13 -9 -1 -8 12 -12 12 -24 2 -10 -8 -17 -9 -22 -1 -4 7 -12 7 -25 0 -11 -6
-21 -6 -24 -1 -7 10 -31 9 -42 -2 -4 -4 -13 -2 -20 4 -9 7 -19 7 -33 0 -24
-13 -34 -14 -27 -3 3 5 -5 7 -17 6 -12 -1 -22 -3 -22 -4 0 -1 -19 -3 -42 -5
-29 -3 -43 0 -43 8 0 7 -4 6 -10 -3 -8 -12 -10 -12 -10 -1 0 10 -3 11 -13 2
-10 -7 -17 -7 -24 0 -8 8 -17 7 -33 -1 -18 -10 -24 -9 -31 1 -7 11 -9 11 -9
-1 0 -13 -2 -13 -9 -1 -8 12 -12 12 -24 2 -10 -8 -17 -9 -22 -1 -4 7 -12 7
-25 0 -13 -7 -21 -7 -25 0 -7 11 -19 13 -27 4z m342 -1288 c14 0 31 4 38 8 7
4 12 4 12 -1 0 -10 52 -9 68 1 7 4 12 2 12 -5 0 -7 3 -9 7 -6 3 4 13 1 21 -6
13 -10 14 -9 7 2 -6 11 -4 13 11 7 29 -12 58 -13 66 -1 5 6 8 4 8 -5 0 -12 2
-12 9 -2 6 11 11 10 25 -3 15 -15 16 -15 17 2 0 12 2 14 6 4 4 -10 7 -10 13
-1 5 8 11 7 24 -5 10 -10 16 -12 16 -4 0 9 3 9 14 0 10 -9 16 -9 21 -1 4 6 12
7 18 2 7 -4 23 -7 37 -6 14 1 30 -3 37 -8 7 -5 18 -8 25 -5 7 2 23 0 36 -4 13
-5 22 -5 22 2 0 6 6 6 19 0 10 -6 21 -7 25 -4 3 3 6 1 6 -5 0 -7 5 -12 11 -12
5 0 7 5 3 11 -5 8 -2 9 11 2 10 -6 27 -8 38 -5 13 3 18 1 13 -6 -5 -8 -1 -10
10 -5 13 5 15 3 10 -8 -4 -8 0 -5 8 5 9 11 16 15 16 9 0 -6 8 -10 18 -9 9 2
22 -4 29 -13 7 -9 13 -11 13 -5 0 6 15 10 34 10 19 -1 32 -4 29 -8 -4 -8 4
-10 50 -10 15 -1 27 -6 27 -13 0 -6 7 -12 15 -12 8 0 12 4 10 8 -3 4 2 10 11
13 8 3 12 2 9 -4 -6 -10 5 -12 50 -14 11 0 23 -4 26 -9 4 -5 18 -9 33 -9 14 0
26 -4 26 -9 0 -5 7 -5 17 -2 12 5 14 3 8 -8 -6 -11 -5 -11 5 -2 15 14 43 5 33
-11 -4 -6 1 -5 10 2 14 12 19 12 31 -1 8 -8 26 -13 40 -12 14 2 29 -2 33 -7 4
-7 1 -8 -7 -3 -9 5 -11 4 -6 -4 4 -6 12 -8 18 -5 6 4 14 0 19 -7 6 -10 9 -11
9 -1 0 6 7 12 16 12 8 0 12 -4 9 -10 -3 -6 1 -7 9 -4 9 3 16 1 16 -6 0 -6 4
-9 9 -6 5 3 21 -1 37 -9 15 -7 31 -12 36 -9 4 3 8 1 8 -3 0 -5 9 -10 20 -11
42 -4 49 -6 45 -13 -3 -4 2 -9 10 -13 8 -3 15 0 15 6 0 7 4 7 13 -1 8 -6 17
-8 20 -4 4 3 7 1 7 -6 0 -7 8 -11 18 -9 9 2 23 -3 30 -12 10 -13 11 -12 5 5
-4 15 0 13 16 -8 13 -15 27 -25 32 -22 4 3 22 -1 40 -10 17 -9 37 -14 45 -11
8 3 14 -1 14 -10 0 -10 8 -14 23 -12 12 2 21 -2 20 -8 -1 -6 5 -11 13 -12 7
-1 21 -3 29 -4 8 -1 15 -5 15 -10 0 -4 8 -8 18 -8 10 0 24 -6 31 -12 11 -10
12 -10 7 -1 -5 9 -2 11 8 7 9 -3 14 -10 13 -16 -2 -9 18 -17 51 -20 6 -1 12
-5 12 -10 0 -4 10 -8 23 -8 18 0 19 -2 7 -10 -12 -8 -8 -10 15 -11 17 -1 34
-1 38 0 5 1 6 -3 3 -8 -3 -5 1 -12 10 -15 10 -4 13 -2 9 7 -4 6 2 3 12 -8 10
-12 26 -27 36 -34 15 -12 17 -12 11 5 -5 17 -4 17 8 3 17 -21 60 -44 76 -41 7
2 11 -3 10 -10 -2 -7 3 -12 10 -10 6 1 12 -3 12 -9 0 -5 5 -7 10 -4 6 3 10 1
10 -4 0 -6 9 -11 20 -11 11 0 20 -4 20 -10 0 -5 7 -10 15 -10 7 0 18 -8 24
-17 5 -10 12 -15 16 -11 3 3 18 -5 33 -19 15 -14 34 -22 44 -20 10 3 16 2 13
-2 -2 -5 7 -14 20 -21 14 -7 25 -17 25 -22 0 -4 8 -8 18 -8 9 0 23 -9 30 -20
7 -11 21 -20 33 -20 11 0 17 -4 14 -10 -3 -5 0 -10 9 -10 8 0 16 -4 18 -9 2
-5 10 -11 18 -13 8 -2 23 -14 32 -28 10 -14 18 -19 18 -12 0 6 5 12 10 12 6 0
10 -6 10 -13 0 -7 18 -24 40 -37 22 -14 40 -29 40 -33 0 -5 5 -5 10 -2 6 3 10
-1 10 -10 0 -9 5 -13 10 -10 6 3 10 1 10 -4 0 -6 7 -11 15 -11 8 0 19 -9 25
-20 6 -11 15 -18 21 -15 5 4 9 1 9 -4 0 -6 6 -11 14 -11 8 0 18 -9 21 -20 4
-11 10 -18 15 -15 4 3 14 -3 21 -12 12 -14 12 -16 -1 -8 -9 5 -12 4 -7 -1 5
-5 16 -9 25 -9 9 0 21 -10 28 -22 6 -13 14 -20 17 -17 4 4 9 -1 13 -10 3 -9
10 -13 15 -10 5 3 9 0 9 -5 0 -6 8 -11 17 -11 9 0 14 -3 10 -6 -8 -8 18 -34
33 -34 6 0 9 -4 6 -8 -4 -8 44 -52 54 -49 9 3 38 -28 33 -35 -2 -5 3 -8 12 -8
9 0 13 -4 10 -10 -3 -5 -1 -10 5 -10 15 0 40 -25 40 -41 0 -7 3 -9 6 -6 8 7
44 -31 44 -45 0 -5 5 -6 10 -3 6 3 13 -2 17 -12 10 -29 50 -73 58 -65 5 4 5
-1 2 -11 -4 -10 -3 -16 2 -13 5 3 17 -6 26 -20 14 -21 19 -24 27 -13 7 11 9 9
5 -7 -3 -13 3 -26 14 -35 10 -7 16 -16 13 -21 -3 -4 2 -8 10 -8 14 0 20 -11
17 -32 0 -4 6 -5 14 -2 11 5 13 2 8 -12 -5 -13 -3 -15 7 -9 10 6 12 4 7 -8 -4
-12 -2 -14 10 -10 11 4 14 2 9 -5 -4 -7 -4 -12 1 -12 4 0 16 -14 25 -31 10
-17 22 -27 28 -24 6 4 10 3 9 -2 -4 -22 3 -33 19 -33 14 0 15 -2 2 -10 -13 -8
-12 -10 3 -10 10 0 15 -4 12 -10 -3 -5 -1 -10 4 -10 6 0 11 -7 11 -16 0 -8 5
-12 10 -9 6 3 10 -1 10 -9 0 -9 5 -16 10 -16 6 0 10 -7 10 -15 0 -8 5 -15 10
-15 6 0 10 -9 10 -21 0 -11 3 -18 8 -16 12 6 39 -28 36 -46 -1 -10 1 -15 5
-13 8 5 35 -28 32 -39 -1 -3 7 -15 19 -25 13 -11 19 -24 14 -31 -4 -7 -3 -10
2 -7 5 3 15 0 22 -8 10 -11 10 -14 0 -14 -9 -1 -7 -5 4 -13 9 -8 18 -20 20
-28 2 -8 11 -20 21 -27 9 -7 17 -22 17 -33 0 -11 6 -22 14 -25 9 -3 12 -12 9
-21 -4 -11 -2 -14 5 -9 8 5 12 0 12 -13 0 -12 5 -21 11 -21 6 0 9 -7 5 -15 -3
-9 0 -15 9 -15 8 0 16 -4 16 -10 1 -5 3 -14 4 -20 1 -5 3 -14 4 -20 0 -5 7
-10 15 -10 9 0 13 -9 11 -26 -1 -15 3 -28 11 -31 8 -3 11 -9 8 -14 -3 -5 1 -9
9 -9 8 0 18 -7 21 -16 3 -8 2 -12 -4 -9 -5 3 -2 -7 7 -24 10 -16 20 -28 24
-26 3 2 6 -2 6 -10 0 -8 -5 -11 -11 -8 -6 4 -2 -4 9 -16 11 -13 19 -25 18 -27
-8 -12 -1 -24 13 -24 13 0 14 -3 5 -14 -10 -12 -8 -16 10 -21 17 -6 19 -9 8
-16 -12 -7 -11 -9 1 -9 13 0 13 -1 0 -10 -13 -8 -12 -10 3 -10 10 0 16 -4 12
-9 -3 -5 1 -15 8 -23 8 -7 12 -19 9 -26 -2 -6 1 -12 8 -12 6 0 8 -5 5 -10 -4
-6 -1 -17 5 -25 6 -8 8 -20 4 -26 -4 -8 -3 -9 4 -5 11 6 16 -6 13 -26 0 -5 3
-8 9 -8 5 0 7 -7 4 -15 -4 -8 -1 -15 6 -15 6 0 8 -5 5 -10 -3 -6 1 -17 9 -25
8 -9 12 -23 9 -32 -5 -12 -3 -14 7 -8 10 6 12 4 7 -8 -3 -10 -2 -17 3 -17 5 0
7 -7 3 -15 -3 -9 2 -22 13 -30 11 -9 14 -14 6 -15 -9 0 -8 -7 4 -25 9 -14 13
-25 8 -25 -4 0 -3 -5 3 -11 6 -6 9 -18 6 -25 -3 -8 0 -14 6 -14 6 0 11 -11 11
-25 0 -14 5 -25 11 -25 7 0 9 -10 6 -26 -2 -14 2 -31 10 -40 11 -11 12 -14 1
-14 -10 0 -9 -3 2 -10 8 -5 11 -10 6 -10 -5 0 -3 -7 4 -15 10 -12 10 -15 -1
-15 -10 -1 -9 -4 4 -14 9 -7 17 -23 17 -34 0 -11 5 -24 11 -28 7 -4 7 -10 1
-16 -7 -7 -6 -16 5 -26 9 -9 11 -18 6 -19 -5 -2 -8 -17 -5 -33 2 -16 8 -28 12
-25 4 2 7 -12 8 -32 1 -20 5 -39 9 -42 5 -3 9 -28 11 -56 1 -27 5 -57 9 -65 3
-8 7 -30 9 -49 2 -19 9 -38 16 -42 10 -7 10 -9 -2 -9 -12 0 -12 -2 -2 -9 17
-10 17 -21 2 -31 -8 -5 -8 -11 2 -21 8 -9 12 -34 11 -67 -1 -29 1 -51 5 -48
10 6 8 -86 -1 -101 -5 -8 -3 -13 4 -13 7 0 9 -3 6 -6 -3 -4 -1 -16 5 -28 14
-25 18 -106 5 -106 -4 0 -5 -6 0 -12 11 -19 12 -37 2 -43 -5 -4 -2 -17 7 -31
9 -13 12 -24 8 -24 -5 0 -2 -5 6 -10 8 -5 10 -10 4 -10 -7 0 -12 -15 -12 -35
0 -24 4 -33 12 -28 6 3 2 -4 -9 -17 -11 -13 -14 -20 -7 -16 11 7 17 -7 12 -29
-4 -17 -11 -78 -13 -112 -1 -18 -5 -33 -9 -33 -4 0 -4 -10 0 -22 11 -32 8 -93
-5 -91 -5 1 -9 -16 -8 -40 1 -23 -3 -48 -8 -54 -6 -9 -6 -13 1 -13 11 0 11
-18 0 -35 -3 -6 -5 -30 -5 -53 1 -24 -4 -48 -10 -54 -11 -9 -9 -21 9 -48 1 -3
-4 -17 -13 -30 -8 -14 -15 -46 -15 -72 1 -30 -3 -43 -9 -38 -6 5 -11 -1 -11
-16 -1 -13 2 -21 7 -18 5 3 4 -7 -1 -21 -6 -15 -7 -31 -4 -37 4 -6 2 -13 -4
-17 -6 -4 -13 -24 -15 -46 -3 -22 -9 -39 -14 -38 -5 1 -7 -12 -5 -29 3 -19 -1
-33 -9 -39 -8 -5 -9 -9 -3 -9 6 0 11 -7 11 -15 0 -8 -4 -12 -9 -9 -4 3 -8 -9
-8 -25 0 -40 -1 -43 -16 -59 -7 -7 -10 -20 -7 -29 4 -11 3 -14 -5 -9 -7 4 -12
2 -12 -3 0 -6 6 -11 13 -11 8 0 9 -3 1 -8 -6 -4 -10 -15 -8 -25 1 -9 -2 -17
-8 -17 -6 0 -8 -6 -5 -14 3 -8 1 -16 -5 -18 -5 -2 -11 -18 -11 -35 -1 -17 -5
-29 -10 -26 -4 2 -6 -7 -3 -21 3 -15 1 -24 -4 -21 -5 3 -12 -9 -15 -27 -4 -18
-12 -36 -17 -39 -5 -3 -10 -21 -10 -38 -1 -18 -7 -35 -15 -38 -11 -4 -11 -8
-2 -20 10 -11 10 -13 -1 -11 -7 2 -14 -9 -17 -27 -2 -16 -9 -34 -15 -40 -8 -7
-9 -6 -3 4 6 10 4 12 -4 7 -8 -6 -9 -11 -1 -20 7 -10 3 -21 -17 -41 -22 -23
-24 -27 -8 -21 17 6 16 4 -5 -20 -14 -15 -19 -24 -12 -20 6 4 12 3 12 -3 0 -5
-6 -14 -12 -18 -19 -12 -40 -52 -33 -63 4 -6 1 -10 -5 -10 -6 0 -9 -4 -5 -10
3 -5 -2 -18 -12 -29 -9 -11 -18 -28 -19 -38 -2 -10 -7 -19 -12 -21 -6 -2 -8
-12 -5 -22 4 -14 0 -20 -10 -20 -10 0 -15 -7 -12 -20 2 -11 -1 -20 -6 -20 -6
0 -7 -4 -4 -10 3 -5 -1 -10 -10 -10 -9 0 -14 -4 -10 -9 3 -6 -4 -19 -16 -29
-14 -14 -17 -22 -9 -27 8 -5 5 -13 -9 -26 -12 -11 -21 -25 -21 -32 0 -7 -9
-19 -20 -27 -14 -10 -16 -16 -7 -22 8 -5 7 -8 -5 -8 -12 0 -16 -6 -13 -21 3
-15 0 -19 -10 -15 -9 3 -12 0 -8 -10 3 -7 0 -14 -6 -14 -6 0 -11 -7 -11 -15 0
-8 -5 -15 -11 -15 -6 0 -9 -6 -6 -14 3 -8 -1 -17 -9 -20 -9 -3 -12 -10 -9 -16
3 -5 1 -10 -4 -10 -6 0 -11 -5 -11 -11 0 -7 -16 -32 -36 -55 -19 -24 -33 -48
-29 -53 3 -5 -4 -12 -15 -16 -11 -4 -18 -10 -15 -15 3 -5 0 -12 -6 -15 -5 -4
-8 -14 -5 -22 3 -8 2 -12 -3 -9 -5 3 -11 -1 -15 -9 -3 -8 -12 -15 -20 -15 -10
0 -13 -7 -11 -20 2 -11 0 -18 -4 -16 -4 3 -14 -7 -22 -22 -18 -35 -35 -53 -43
-45 -3 4 -6 -3 -6 -15 0 -12 -9 -26 -20 -32 -11 -6 -20 -17 -20 -25 0 -8 -4
-15 -10 -15 -5 0 -10 -7 -10 -16 0 -8 -4 -12 -10 -9 -5 3 -10 1 -10 -5 0 -6
-5 -8 -12 -4 -6 4 -8 3 -5 -4 9 -13 -2 -44 -13 -37 -5 3 -11 -4 -15 -15 -3
-11 -11 -20 -17 -20 -6 0 -9 -3 -5 -6 9 -9 -21 -36 -33 -29 -6 3 -7 0 -4 -9 4
-10 -1 -18 -11 -22 -9 -4 -14 -13 -11 -20 3 -8 -1 -14 -9 -14 -8 0 -15 -8 -15
-17 0 -9 -3 -14 -6 -10 -8 8 -34 -18 -34 -35 0 -8 -4 -7 -11 5 -5 9 -14 17
-20 17 -17 0 -59 48 -59 67 0 15 -2 16 -10 3 -9 -13 -13 -11 -30 10 -11 14
-20 31 -20 38 0 7 -4 10 -10 7 -5 -3 -10 -1 -10 5 0 6 -4 8 -10 5 -5 -3 -10 1
-10 9 0 9 -5 16 -11 16 -5 0 -7 5 -4 10 3 6 -3 10 -15 10 -12 0 -19 3 -16 8 2
4 -2 16 -10 27 -8 10 -14 15 -14 10 0 -4 -14 6 -30 24 -17 17 -34 31 -39 31
-5 0 -15 8 -22 18 -13 16 -13 16 6 2 18 -14 19 -14 7 2 -8 10 -22 20 -33 23
-10 4 -19 11 -19 16 0 12 -25 39 -35 39 -12 0 -34 27 -28 34 4 3 -3 6 -15 6
-16 0 -20 5 -17 21 3 17 1 19 -10 9 -10 -9 -15 -7 -20 10 -4 14 -12 19 -22 15
-13 -5 -14 -3 -3 10 11 13 11 16 -1 13 -8 -2 -13 4 -13 14 1 10 -1 17 -5 16
-19 -2 -31 3 -26 12 4 6 -1 7 -11 3 -14 -5 -16 -2 -12 15 4 15 2 19 -8 15 -8
-3 -17 2 -20 11 -3 9 -13 16 -21 16 -8 0 -11 5 -8 10 3 6 -1 10 -9 10 -8 0
-18 5 -22 12 -5 7 -2 9 7 4 8 -4 5 0 -5 8 -11 9 -25 16 -30 16 -6 0 -4 5 4 10
12 7 8 10 -15 10 -23 0 -27 3 -15 10 13 9 13 10 0 10 -9 0 -22 9 -30 19 -7 11
-17 18 -22 15 -4 -3 -8 5 -8 16 0 17 -4 21 -17 16 -10 -4 -15 -4 -11 -1 8 9
-23 45 -39 45 -19 0 -36 37 -20 44 6 3 2 3 -10 0 -19 -4 -23 -1 -23 16 0 12
-4 18 -10 15 -5 -3 -22 6 -37 21 -16 14 -22 23 -15 20 6 -4 12 -5 12 -1 0 3
-11 10 -25 15 -14 5 -25 17 -25 25 0 9 -4 13 -10 10 -5 -3 -10 0 -10 8 0 8 -8
21 -17 28 -15 11 -16 11 -5 -1 6 -8 12 -18 12 -23 0 -5 -12 5 -26 22 -14 17
-23 35 -19 41 3 5 0 7 -8 4 -8 -3 -21 2 -30 10 -8 8 -18 12 -23 8 -5 -4 -2 1
5 11 10 12 10 17 1 17 -6 0 -29 18 -50 40 -21 22 -43 40 -49 40 -10 0 -15 14
-12 32 0 4 -6 5 -14 2 -11 -5 -13 -2 -8 12 6 17 5 18 -13 4 -10 -8 -16 -10
-12 -6 4 5 -4 19 -18 31 -17 14 -24 28 -19 35 5 8 4 11 -3 6 -13 -8 -95 68
-85 78 4 4 -1 4 -12 0 -15 -6 -17 -4 -12 10 4 10 3 15 -3 11 -6 -3 -13 1 -16
9 -3 9 -11 13 -17 9 -6 -4 -8 0 -4 11 4 10 3 15 -3 11 -6 -3 -13 1 -16 9 -3 9
-10 13 -15 10 -5 -3 -9 2 -9 11 0 9 -4 13 -10 10 -6 -3 -10 1 -10 9 0 9 -7 16
-16 16 -8 0 -12 5 -9 10 3 6 -4 10 -17 10 -18 0 -20 2 -8 10 13 9 13 10 0 11
-8 1 -18 1 -22 0 -4 0 -5 8 -3 19 3 13 -1 17 -11 13 -9 -3 -14 1 -14 13 0 16
-2 17 -10 4 -8 -13 -10 -12 -10 3 0 11 -4 15 -12 11 -8 -5 -9 0 -6 14 4 12 2
20 -2 17 -5 -3 -12 0 -15 6 -4 5 -13 8 -20 5 -9 -3 -12 2 -10 15 2 11 1 17 -4
15 -4 -3 -13 4 -21 14 -8 10 -18 16 -23 13 -6 -4 -8 2 -5 14 4 17 2 19 -15 15
-14 -3 -18 -1 -13 6 7 11 -6 17 -28 13 -5 -1 -3 5 4 14 7 9 9 15 4 14 -22 -4
-34 2 -34 17 0 8 -4 12 -10 9 -5 -3 -10 1 -10 10 0 9 -4 13 -10 10 -5 -3 -10
-1 -10 4 0 6 -6 11 -14 11 -10 0 -13 7 -11 20 2 11 0 18 -5 15 -6 -3 -18 -1
-27 4 -10 6 -14 11 -10 11 12 0 -61 70 -74 70 -7 0 -10 3 -6 6 3 3 -5 18 -19
32 -13 15 -24 30 -24 34 0 4 -7 5 -15 2 -8 -4 -15 -1 -15 6 0 14 -25 40 -39
40 -15 0 -22 16 -15 35 5 12 14 15 31 10 17 -4 23 -2 18 6 -5 8 -1 8 15 -1 12
-7 20 -7 16 -2 -4 6 9 9 34 6 29 -3 39 0 34 8 -4 7 -3 8 5 4 18 -12 61 -15 61
-5 0 5 5 9 11 9 5 0 7 -6 3 -12 -4 -7 3 -4 16 7 22 19 23 19 16 1 -5 -16 -4
-17 9 -6 8 7 15 9 15 4 0 -4 5 -3 12 4 8 8 15 9 25 1 9 -9 13 -8 13 0 0 7 5 9
10 6 6 -3 10 -1 10 4 0 6 5 11 11 11 5 0 7 -5 3 -12 -4 -6 -3 -9 2 -6 30 16
51 22 124 31 14 1 31 6 39 11 8 5 16 3 22 -5 6 -10 9 -10 9 -2 0 7 7 10 17 6
10 -4 14 -2 10 4 -4 7 0 10 10 9 10 -2 21 2 25 8 5 7 8 6 8 -4 0 -13 2 -13 9
-1 5 8 17 16 25 17 10 1 13 -2 9 -9 -4 -7 5 -4 20 6 19 12 27 14 27 5 0 -10 3
-10 9 1 5 7 13 11 19 7 5 -3 13 1 16 10 5 13 9 14 21 4 12 -10 16 -9 21 4 5
13 9 14 21 5 8 -7 13 -8 12 -3 -4 21 2 28 11 14 7 -11 10 -11 10 -2 0 7 5 10
10 7 6 -3 10 -2 10 4 0 6 7 8 16 4 11 -4 22 1 30 12 8 10 14 15 14 11 0 -5 8
-2 17 5 11 9 14 10 9 2 -5 -9 -2 -11 8 -7 9 3 16 11 16 16 0 6 8 4 17 -3 11
-10 14 -10 9 -1 -7 11 -3 14 27 16 18 2 36 20 29 31 -3 6 2 4 11 -4 15 -12 17
-11 17 5 0 15 2 16 9 5 6 -9 11 -10 15 -2 4 6 12 9 17 6 5 -4 9 -1 9 5 0 7 7
9 16 6 8 -3 12 -2 9 4 -6 9 8 14 28 11 4 0 7 4 7 9 0 6 9 10 20 10 11 0 23 7
26 15 4 8 10 12 15 9 5 -3 9 0 9 7 0 8 5 8 18 -2 9 -7 14 -9 10 -5 -11 13 11
36 33 36 11 0 19 6 19 14 0 10 7 13 20 11 11 -2 18 0 15 5 -3 4 8 14 25 22 16
7 30 16 30 20 0 5 6 8 13 8 7 0 20 9 30 20 10 12 22 18 28 15 5 -4 8 -1 7 7
-2 7 3 12 10 11 11 -3 17 10 12 32 -1 6 4 5 10 -1 9 -9 18 -5 38 13 15 14 26
29 25 34 -2 4 5 5 14 2 11 -4 14 -3 9 5 -4 8 3 16 19 22 14 5 24 13 21 18 -2
4 11 18 30 31 18 13 31 27 29 31 -3 5 4 11 15 15 11 4 18 11 15 16 -4 5 2 9
11 9 10 0 15 3 12 6 -9 8 46 62 57 56 6 -3 3 3 -5 13 -12 15 -12 17 -1 10 11
-6 13 -4 8 7 -3 10 0 15 11 14 9 0 16 4 15 11 -2 7 6 17 17 23 11 6 18 15 15
21 -4 5 -1 9 5 9 6 0 9 4 6 9 -3 5 1 12 10 15 9 4 14 13 10 22 -3 9 -2 12 5 9
6 -4 13 2 16 14 3 12 10 21 15 21 5 0 7 4 4 9 -3 5 1 12 9 15 8 3 14 11 13 18
-2 7 3 12 11 10 12 -3 12 0 1 12 -9 12 -9 16 -1 16 7 0 9 5 6 10 -3 6 -2 10 3
10 5 0 17 12 27 26 9 15 12 24 7 20 -6 -3 -4 7 4 24 9 17 20 27 26 24 6 -4 6
1 -1 14 -7 13 -7 23 -2 27 13 7 41 64 41 82 0 7 6 13 13 13 8 0 7 4 -3 10 -12
7 -12 10 -1 10 7 0 11 6 8 14 -3 8 2 17 11 21 14 5 14 7 2 15 -13 8 -13 10 -1
10 8 0 11 3 8 7 -4 3 0 17 9 31 11 17 12 22 3 17 -11 -6 -12 -5 -1 6 6 7 12
23 12 35 0 13 4 25 9 28 5 3 7 15 4 26 -3 12 0 20 7 20 10 0 10 3 0 15 -9 11
-9 15 -1 15 7 0 9 5 6 10 -3 6 -3 10 2 10 4 0 9 23 11 52 1 29 8 56 15 60 9 6
9 10 -2 17 -9 6 -10 11 -2 15 6 4 11 13 11 19 0 7 -4 6 -10 -3 -6 -9 -10 -10
-10 -3 0 6 5 15 10 18 8 5 7 12 -2 23 -8 9 -8 13 -2 9 7 -4 14 0 18 8 3 8 0
15 -7 15 -9 0 -9 2 0 8 8 5 9 13 3 22 -5 8 -5 21 1 32 5 10 6 18 2 18 -4 0 -1
5 7 10 12 8 12 10 1 10 -11 0 -11 3 -1 15 9 11 9 15 1 15 -7 0 -9 5 -4 13 11
17 10 31 -2 39 -6 5 -6 8 2 8 12 0 12 24 0 36 -3 4 -3 12 1 18 11 18 9 96 -2
96 -7 0 -8 3 -1 8 15 11 17 32 2 32 -8 0 -7 4 3 10 8 5 10 10 4 10 -13 0 -13
42 1 52 6 5 5 8 -4 8 -11 0 -11 3 0 17 8 10 9 14 2 10 -6 -4 -14 -3 -18 3 -3
5 -1 10 6 10 10 0 10 3 1 12 -14 14 -16 32 -3 23 6 -3 7 6 3 22 -4 16 -7 40
-6 56 0 15 -2 27 -6 27 -4 0 -6 18 -6 40 1 22 -1 40 -5 40 -3 0 -5 10 -4 23 1
12 -2 27 -7 33 -5 7 -10 26 -11 43 -1 17 -6 31 -10 31 -4 0 -3 10 4 21 7 13 7
19 1 15 -6 -3 -13 -2 -17 4 -3 5 -1 10 6 10 7 0 4 7 -7 16 -10 8 -13 13 -6 9
6 -3 12 -1 12 4 0 6 -6 11 -12 12 -9 0 -9 2 1 6 10 4 10 7 1 13 -6 4 -13 16
-15 26 -2 10 -4 19 -5 19 -1 0 -3 9 -5 20 -2 11 -9 21 -16 24 -8 2 -7 6 2 12
10 6 11 9 2 9 -7 0 -13 9 -13 21 0 11 -7 27 -15 35 -8 8 -12 21 -9 29 4 8 -1
17 -9 21 -9 3 -13 12 -10 20 3 8 0 14 -7 14 -6 0 -10 6 -8 12 3 7 -3 19 -12
28 -9 8 -10 11 -1 5 12 -9 12 -7 2 13 -6 12 -16 22 -20 22 -5 0 -8 8 -7 18 2
9 -7 30 -20 45 -13 16 -22 33 -18 38 3 5 0 8 -8 7 -7 -2 -14 7 -16 20 -2 12
-7 22 -11 22 -4 0 -13 12 -19 26 -7 14 -16 23 -22 19 -5 -3 -7 3 -5 15 2 11 1
19 -3 19 -20 -3 -25 2 -12 11 12 8 11 10 -6 10 -22 0 -39 24 -28 41 3 5 2 9
-3 8 -22 -4 -32 2 -27 16 4 9 0 15 -9 15 -8 0 -17 10 -20 21 -4 14 -11 20 -21
16 -9 -4 -15 -3 -15 1 3 21 -2 32 -13 26 -6 -4 -8 -3 -5 3 7 11 -28 44 -38 35
-4 -4 -6 -2 -5 3 4 19 0 38 -7 32 -3 -4 -16 5 -29 18 -13 14 -28 25 -34 25 -6
0 -8 5 -5 10 3 6 0 10 -7 10 -8 0 -20 9 -28 20 -8 11 -20 20 -28 20 -7 0 -10
5 -7 10 3 6 0 10 -8 10 -8 0 -30 15 -48 33 -18 17 -27 23 -19 12 l15 -20 -25
20 c-14 11 -32 27 -40 35 -8 8 -22 16 -30 18 -8 2 -28 15 -45 30 -16 15 -23
18 -15 8 14 -18 14 -18 -7 -6 -12 8 -19 18 -17 22 3 4 -4 8 -15 8 -12 0 -21 5
-21 11 0 5 -4 7 -10 4 -5 -3 -10 -1 -10 5 0 6 -4 8 -10 5 -5 -3 -10 -1 -10 4
0 6 -7 11 -16 11 -8 0 -13 4 -10 8 2 4 -7 9 -20 10 -14 1 -32 9 -40 17 -9 8
-20 13 -25 10 -5 -4 -9 -1 -9 6 0 7 -3 9 -7 6 -3 -4 -15 1 -26 10 -11 10 -17
12 -13 6 5 -9 2 -11 -8 -7 -9 3 -13 10 -10 15 3 5 -2 6 -10 3 -9 -4 -16 -1
-16 6 0 9 -4 9 -17 -1 -11 -10 -14 -10 -9 -1 4 7 1 12 -8 12 -9 0 -16 6 -16
13 0 8 -4 7 -10 -3 -6 -10 -10 -11 -10 -2 0 6 -9 12 -20 12 -11 0 -20 5 -20
11 0 5 -4 8 -9 4 -5 -3 -12 -1 -16 4 -3 6 -13 7 -22 4 -11 -4 -14 -3 -9 5 5 9
1 9 -18 2 -19 -7 -25 -6 -23 2 1 7 -5 13 -13 14 -8 0 -21 2 -28 2 -8 1 -10 7
-6 15 6 9 4 9 -8 -1 -11 -9 -18 -10 -23 -2 -3 6 -11 8 -16 4 -5 -3 -15 -1 -22
4 -7 6 -24 13 -37 15 -57 10 -91 20 -96 29 -3 5 -12 4 -20 -3 -10 -8 -14 -8
-14 0 0 6 -5 11 -11 11 -5 0 -7 -6 -3 -12 4 -7 -3 -4 -16 7 -13 11 -20 15 -17
8 5 -7 0 -9 -13 -6 -11 3 -18 8 -16 12 3 4 -8 6 -25 5 -16 -1 -32 2 -35 7 -3
6 -11 5 -20 -2 -11 -9 -15 -8 -20 6 -5 13 -9 14 -15 3 -7 -11 -11 -10 -19 2
-8 13 -10 13 -10 0 0 -11 -3 -11 -12 -2 -9 9 -15 9 -27 -1 -12 -10 -13 -9 -7
1 5 9 3 13 -5 11 -8 -1 -36 -1 -62 0 -35 1 -46 4 -41 14 5 9 4 9 -6 0 -9 -9
-19 -9 -33 -2 -15 9 -18 8 -12 -2 5 -8 4 -10 -3 -5 -23 14 -92 17 -92 4 0 -6
-7 -3 -16 8 -8 10 -13 13 -9 7 3 -7 1 -13 -4 -13 -6 0 -11 5 -11 12 0 9 -3 9
-12 0 -7 -7 -17 -8 -30 -1 -12 6 -18 6 -18 -1 0 -5 -5 -10 -10 -10 -6 0 -9 5
-8 12 3 13 -41 16 -60 4 -7 -4 -12 -2 -12 4 0 8 -6 8 -20 0 -11 -6 -20 -7 -20
-1 0 12 -33 9 -42 -4 -5 -6 -8 -5 -8 3 0 7 -5 10 -11 7 -17 -11 -59 -13 -65
-3 -4 6 -10 5 -15 -3 -5 -8 -9 -9 -9 -3 0 10 -42 11 -95 0 -11 -2 -28 1 -37 6
-13 6 -18 5 -19 -4 0 -8 -2 -9 -5 -2 -4 10 -47 10 -99 0 -11 -2 -28 1 -37 6
-13 6 -18 5 -19 -4 0 -8 -2 -9 -5 -2 -4 10 -47 10 -99 0 -11 -2 -28 1 -37 6
-13 6 -18 5 -19 -4 0 -8 -2 -9 -5 -2 -4 10 -47 10 -99 0 -11 -2 -28 1 -37 6
-13 6 -18 5 -19 -4 0 -8 -2 -9 -5 -2 -4 10 -47 10 -99 0 -11 -2 -28 1 -37 6
-13 6 -18 5 -19 -4 0 -8 -2 -9 -5 -2 -4 10 -47 10 -99 0 -11 -2 -28 1 -37 6
-13 6 -18 5 -19 -4 0 -8 -2 -9 -5 -2 -4 10 -47 10 -99 0 -11 -2 -28 1 -37 6
-13 6 -18 5 -19 -4 0 -8 -2 -9 -5 -2 -4 10 -47 10 -99 0 -11 -2 -28 1 -37 6
-13 6 -18 5 -19 -4 0 -8 -2 -9 -5 -2 -4 10 -47 10 -99 0 -11 -2 -28 1 -37 6
-13 6 -18 5 -19 -4 0 -8 -2 -9 -5 -2 -4 10 -47 10 -99 0 -11 -2 -28 1 -37 6
-13 6 -18 5 -19 -4 0 -8 -2 -9 -5 -2 -3 7 -22 9 -47 7 -48 -5 -71 -5 -107 0
-14 2 -28 -1 -32 -7 -6 -7 -10 -8 -15 -1 -9 12 -23 13 -40 2 -6 -4 -14 -3 -17
2 -6 9 -23 10 -41 0 -9 -5 -74 -4 -85 2 -14 6 -36 4 -42 -6 -5 -6 -11 -5 -17
3 -9 15 -20 15 -38 1 -7 -6 -13 -6 -17 0 -6 9 -23 10 -41 0 -9 -5 -74 -4 -85
2 -14 6 -36 4 -42 -6 -6 -7 -10 -7 -15 0 -9 12 -23 13 -40 2 -6 -4 -14 -3 -17
2 -6 9 -23 10 -41 0 -9 -5 -74 -4 -85 2 -14 6 -36 4 -42 -6 -5 -7 -11 -7 -15
0 -11 14 -53 15 -53 1 0 -6 -5 -4 -10 4 -7 11 -12 12 -21 3 -8 -8 -19 -9 -35
-3 -14 6 -26 6 -29 0 -4 -7 -13 -6 -26 0 -14 8 -19 7 -19 -2 0 -10 -2 -10 -9
1 -6 9 -10 4 -13 -18 -2 -17 -1 -31 2 -31 8 0 5 -44 -5 -59 -3 -6 -1 -11 5
-11 6 0 8 -5 3 -12 -11 -18 -13 -38 -3 -38 8 0 5 -43 -5 -59 -3 -6 -1 -11 6
-11 9 0 9 -3 0 -14 -8 -10 -9 -16 -1 -21 7 -4 7 -12 0 -26 -8 -13 -7 -19 0
-19 6 0 8 -5 3 -12 -11 -18 -13 -38 -3 -38 8 0 5 -43 -5 -59 -3 -6 -1 -11 5
-11 6 0 8 -5 3 -12 -11 -18 -13 -38 -3 -38 8 0 5 -43 -5 -59 -3 -6 -1 -11 6
-11 9 0 9 -3 0 -14 -8 -10 -9 -16 -1 -21 7 -4 7 -12 0 -26 -8 -13 -7 -19 0
-19 6 0 8 -5 3 -12 -11 -18 -13 -38 -3 -38 8 0 5 -43 -5 -59 -3 -6 -1 -11 5
-11 6 0 8 -5 3 -12 -11 -18 -13 -38 -3 -38 8 0 5 -43 -5 -59 -3 -6 -1 -11 6
-11 9 0 9 -3 0 -14 -8 -10 -9 -16 -1 -21 7 -4 7 -12 0 -26 -8 -13 -7 -19 0
-19 6 0 8 -5 3 -12 -11 -18 -13 -38 -3 -38 8 0 5 -48 -4 -57 -3 -4 -1 -12 5
-20 9 -10 8 -13 -2 -13 -11 0 -11 -2 1 -10 12 -8 12 -10 1 -10 -10 0 -11 -3
-2 -13 6 -8 7 -17 3 -21 -10 -11 -9 -30 2 -38 6 -4 6 -11 0 -20 -5 -7 -9 -25
-8 -40 1 -20 -3 -25 -14 -20 -12 4 -13 7 -3 10 8 3 4 9 -10 16 -13 6 -29 22
-35 35 -8 16 -13 19 -17 9 -3 -7 -6 -3 -6 10 -1 12 -7 21 -13 20 -7 -2 -12 4
-12 13 1 12 -4 15 -19 11 -14 -3 -18 -1 -13 6 4 7 1 12 -9 12 -9 0 -13 5 -10
10 3 6 -1 10 -10 10 -9 0 -13 5 -10 10 3 6 -1 10 -10 10 -9 0 -13 5 -10 10 3
6 -1 10 -9 10 -9 0 -16 7 -16 16 0 8 -4 13 -8 10 -5 -3 -14 4 -22 14 -8 10
-17 17 -22 14 -4 -3 -8 0 -8 6 0 16 -26 40 -34 32 -4 -3 -4 1 0 11 5 13 1 17
-16 17 -11 0 -18 5 -15 10 3 6 1 10 -5 10 -6 0 -9 4 -6 9 7 11 -22 23 -35 16
-5 -4 -6 1 -3 10 5 11 0 18 -15 22 -11 3 -21 11 -21 18 0 6 -10 20 -22 31
l-23 19 20 -25 20 -25 -22 19 c-13 11 -23 25 -23 33 0 7 -7 13 -16 13 -10 0
-14 5 -10 16 3 8 2 12 -4 9 -6 -3 -10 -1 -10 5 0 6 -4 8 -10 5 -5 -3 -10 1
-10 9 0 9 -7 16 -16 16 -9 0 -12 5 -8 12 5 7 2 9 -9 5 -12 -4 -14 -2 -10 10 4
11 2 14 -5 9 -7 -4 -12 -1 -12 9 0 9 -4 14 -9 11 -5 -3 -12 1 -15 10 -4 9 -13
14 -22 10 -8 -3 -12 -2 -9 3 6 11 -37 61 -52 61 -6 0 -13 9 -16 20 -3 11 -12
20 -22 20 -9 0 -15 7 -13 17 2 10 -5 19 -16 21 -13 3 -16 0 -11 -9 5 -8 4 -10
-4 -5 -9 6 -9 11 -1 21 10 12 8 13 -10 10 -19 -4 -20 -2 -8 12 9 11 9 14 1 9
-7 -4 -20 2 -30 13 -9 11 -20 18 -25 15 -4 -3 -5 3 -1 13 3 10 3 15 -1 11 -10
-8 -96 74 -89 84 2 4 -3 5 -11 2 -17 -7 -22 11 -6 19 6 3 5 4 -2 3 -7 -2 -19
4 -26 13 -8 10 -11 10 -6 2 5 -9 3 -12 -4 -7 -7 4 -12 14 -12 22 0 8 -4 14 -8
14 -14 0 -52 36 -52 49 0 7 -5 9 -10 6 -6 -3 -10 1 -10 9 0 9 -7 16 -15 16 -9
0 -19 8 -22 18 -9 22 -29 42 -42 42 -11 0 -15 15 -12 34 1 5 -5 4 -13 -4 -16
-12 -21 -5 -17 23 0 4 -9 7 -21 7 -12 0 -18 3 -15 6 4 4 -5 17 -19 29 -24 20
-26 54 -3 40 5 -4 9 -1 9 4 0 6 8 11 18 11 13 0 14 2 3 9 -11 7 -9 10 9 16 18
6 20 9 9 17 -10 7 -8 7 9 3 13 -4 22 -2 22 4 0 6 7 11 17 11 9 0 14 3 10 6
-10 10 42 56 55 48 7 -4 8 -3 4 4 -4 7 -3 12 3 12 6 0 24 13 40 29 16 16 32
26 35 23 3 -3 6 0 6 6 0 7 3 11 8 10 4 -2 17 7 30 20 12 12 26 20 31 18 4 -3
14 6 21 19 7 13 17 22 23 18 5 -3 19 5 29 18 11 13 17 17 13 9 -4 -10 -1 -9 8
3 8 9 19 17 25 17 6 0 18 10 26 22 9 12 16 17 16 10 0 -8 7 -6 19 6 54 49 74
66 68 56 -3 -6 0 -11 8 -11 8 0 14 3 13 6 -2 20 4 29 22 34 13 3 18 1 14 -6
-3 -7 3 -2 13 9 10 12 26 20 35 19 11 -2 15 2 11 11 -3 8 1 14 8 14 7 0 20 7
30 16 9 8 26 17 36 19 10 2 19 4 21 4 1 1 5 0 8 -1 3 -2 10 5 15 15 6 9 16 17
24 17 7 0 15 4 17 9 2 5 9 11 17 13 8 2 23 10 33 18 10 8 22 14 26 13 4 -1 13
3 20 9 6 6 12 7 12 2 0 -5 7 1 15 13 15 22 55 38 55 21 0 -5 7 -2 16 7 9 9 34
23 55 32 22 8 36 20 32 26 -3 6 -1 7 5 3 7 -4 24 -1 39 7 37 19 88 40 89 35 0
-1 8 5 18 15 10 9 22 15 27 12 4 -3 20 2 34 11 14 9 25 14 25 10 0 -3 16 3 36
15 20 11 39 18 42 14 3 -3 -1 -5 -8 -5 -7 0 -10 -3 -7 -7 4 -3 18 4 32 17 14
13 25 20 25 15 0 -4 10 0 22 11 21 19 21 19 14 0 -6 -19 -6 -19 12 -3 10 9 26
17 35 17 9 0 19 5 22 10 4 6 16 10 28 8 12 -2 21 2 20 8 -1 6 4 11 12 11 8 0
12 -4 9 -9 -3 -4 2 -5 10 -2 9 3 14 10 11 14 -3 5 3 7 12 5 10 -1 23 2 30 7 7
5 17 7 23 3 5 -3 13 0 15 8 4 9 20 13 46 13 23 -1 43 3 47 8 3 5 -1 6 -8 1 -8
-5 -11 -4 -7 2 4 6 20 9 37 8 16 -1 28 1 25 5 -5 8 47 23 83 23 12 0 22 3 22
7 0 4 11 6 25 4 14 -1 31 3 38 9 6 7 23 12 37 12 14 0 31 6 39 13 11 11 17 10
31 -3 17 -15 19 -15 28 2 6 10 14 15 18 11 3 -4 21 -1 38 6 20 8 40 10 54 5
15 -6 21 -5 17 1 -5 9 28 15 38 8 2 -2 11 3 20 10 11 10 17 10 22 1 6 -8 10
-7 16 2 8 12 11 11 19 -1 8 -13 14 -8 12 10 -1 8 42 5 55 -3 6 -4 13 -2 15 4
4 12 77 17 95 6 6 -4 13 -3 15 2 1 5 12 11 23 13 11 1 23 8 27 13 5 6 8 6 8
-2 0 -13 18 -12 39 1 11 7 12 6 6 -5 -8 -12 -6 -12 8 0 13 10 17 10 17 1 0 -9
4 -9 13 -3 16 14 50 13 59 -1 5 -7 8 -3 8 9 0 17 2 17 10 5 7 -11 10 -11 10
-2 0 10 5 10 20 2 15 -8 20 -8 20 1 0 8 4 9 13 0 8 -6 17 -8 20 -4 4 3 23 7
42 8 20 2 39 5 42 8 3 3 12 3 21 -1 9 -3 28 -6 42 -6z m-3903 -2217 c13 -15
23 -33 23 -40 0 -11 3 -11 10 1 8 13 10 12 10 -2 0 -17 12 -23 34 -19 5 1 4
-4 -3 -12 -9 -12 -8 -16 5 -21 9 -3 19 -4 24 -1 4 3 6 -5 3 -17 -3 -14 -1 -18
4 -12 6 9 11 8 21 -2 10 -11 10 -14 0 -15 -9 0 -8 -3 2 -6 8 -4 21 -13 28 -22
11 -14 11 -14 6 4 -5 18 -4 18 6 2 6 -9 8 -22 5 -27 -4 -6 1 -7 11 -3 13 5 15
3 9 -7 -6 -10 -4 -12 10 -6 14 5 16 4 6 -8 -9 -11 -8 -15 4 -20 9 -3 13 -2 10
4 -3 6 -1 10 4 10 6 0 11 -9 11 -20 0 -11 6 -19 13 -17 6 1 11 -3 10 -10 -1
-6 5 -17 14 -25 12 -9 15 -9 9 0 -4 6 -2 12 3 12 6 0 11 -10 11 -22 0 -12 3
-19 6 -15 7 6 39 -22 39 -34 0 -4 4 -11 9 -16 5 -5 6 -3 2 5 -4 6 -2 12 3 12
6 0 11 -4 11 -8 0 -15 37 -52 44 -45 3 3 6 -1 6 -11 0 -9 5 -14 10 -11 6 3 10
1 10 -5 0 -6 5 -8 13 -4 7 5 7 1 -3 -12 -8 -10 -11 -16 -6 -12 14 12 48 -12
42 -28 -3 -9 -1 -12 4 -9 6 3 10 1 10 -4 0 -6 5 -11 11 -11 17 0 50 -41 42
-53 -3 -6 -1 -7 6 -3 6 4 9 12 6 17 -4 5 -4 9 -1 9 3 0 10 -10 17 -21 9 -17 8
-20 -2 -14 -8 6 -10 4 -5 -4 5 -7 14 -10 22 -7 7 3 16 0 20 -6 4 -7 3 -8 -4
-4 -7 4 -12 2 -12 -3 0 -11 15 -15 35 -11 5 1 7 -2 3 -6 -5 -4 1 -14 12 -21
11 -8 17 -19 14 -25 -5 -7 -1 -9 9 -5 11 4 17 1 17 -8 0 -8 7 -15 15 -15 8 0
15 -6 15 -14 0 -8 10 -18 21 -21 17 -6 19 -9 8 -17 -10 -7 -8 -8 9 -5 20 5 22
3 10 -11 -10 -12 -10 -14 0 -8 7 4 15 1 18 -8 3 -9 10 -13 15 -10 5 3 9 0 9
-6 0 -6 4 -8 10 -5 6 4 7 -1 3 -11 -4 -11 -3 -15 5 -10 6 3 14 -3 17 -15 6
-17 9 -19 17 -8 7 10 8 8 5 -8 -3 -12 -2 -22 2 -21 13 4 51 -14 51 -23 0 -6
-4 -7 -10 -4 -5 3 -10 1 -10 -6 0 -6 8 -9 20 -6 11 3 17 1 14 -4 -3 -5 2 -12
10 -15 9 -3 13 -10 10 -15 -3 -5 3 -6 12 -2 14 5 16 3 10 -12 -4 -11 -4 -17
-1 -13 4 3 20 -7 36 -23 17 -17 35 -26 42 -22 8 4 8 1 -1 -9 -10 -13 -10 -18
-1 -24 8 -4 9 -3 5 4 -4 7 -3 12 3 12 5 0 13 -9 16 -20 4 -11 11 -18 16 -15 5
4 9 -3 9 -14 0 -12 4 -21 10 -21 5 0 7 8 3 18 -3 9 5 2 18 -15 13 -18 31 -33
39 -33 13 0 13 -1 0 -10 -13 -8 -12 -10 3 -10 10 0 16 -4 13 -9 -3 -5 4 -11
15 -14 12 -3 18 -10 14 -16 -4 -7 0 -8 11 -4 12 4 15 3 10 -5 -4 -7 3 -17 19
-24 18 -8 22 -14 13 -20 -10 -6 -10 -8 0 -8 32 0 54 -20 40 -37 -7 -8 -3 -10
13 -6 15 4 20 3 15 -5 -4 -7 -1 -12 9 -12 9 0 13 -4 10 -10 -3 -5 1 -10 9 -10
9 0 16 -5 16 -11 0 -5 4 -7 10 -4 6 3 7 -1 4 -9 -4 -11 0 -16 11 -16 9 0 13
-4 10 -10 -3 -5 1 -10 9 -10 15 0 21 -12 17 -34 -1 -5 6 -6 15 -2 11 4 18 0
21 -15 4 -13 11 -18 22 -14 8 3 12 3 9 -1 -10 -9 15 -33 27 -26 6 3 4 -2 -4
-11 -12 -15 -12 -17 1 -12 9 4 21 -4 32 -19 9 -15 24 -26 34 -26 15 0 15 -2 2
-10 -12 -8 -10 -10 9 -10 17 0 22 -4 17 -16 -3 -8 -2 -12 4 -9 6 3 10 1 10 -4
0 -6 7 -11 16 -11 8 0 12 -4 9 -10 -3 -5 1 -10 10 -10 9 0 13 -4 10 -10 -3 -5
1 -10 10 -10 11 0 15 -5 12 -14 -4 -10 0 -13 14 -11 11 2 17 0 14 -6 -4 -5 1
-9 11 -9 14 0 15 -2 3 -17 -10 -11 -10 -14 -1 -9 6 4 12 2 12 -3 0 -6 6 -10
13 -9 6 2 11 -3 9 -9 -2 -11 16 -18 39 -15 4 1 4 -8 1 -20 -3 -14 -1 -19 6
-14 7 4 17 -3 24 -18 9 -21 14 -23 25 -14 11 9 13 8 11 -3 -2 -8 2 -13 9 -12
7 2 10 -4 6 -13 -4 -10 2 -17 16 -21 11 -3 18 -9 15 -14 -3 -5 0 -9 6 -9 15 0
40 -25 40 -40 0 -7 7 -9 16 -6 8 3 12 2 9 -4 -3 -6 0 -10 7 -10 11 0 10 -2 0
-9 -10 -6 -4 -10 20 -15 22 -4 29 -9 20 -15 -9 -6 -7 -12 10 -27 22 -19 22
-19 8 1 -15 19 -15 19 11 0 18 -13 23 -22 15 -27 -8 -6 -7 -8 2 -8 7 0 10 -4
7 -10 -3 -5 -2 -10 3 -10 12 0 10 -43 -3 -52 -6 -5 -6 -8 1 -8 12 0 11 -41 -1
-59 -3 -6 -1 -11 5 -11 6 0 8 -5 3 -12 -11 -18 -13 -38 -3 -38 8 0 5 -43 -5
-59 -3 -6 -1 -11 5 -11 6 0 8 -5 3 -12 -11 -18 -13 -38 -3 -38 8 0 5 -43 -5
-59 -3 -6 -1 -11 5 -11 6 0 8 -5 3 -12 -11 -18 -13 -38 -3 -38 8 0 5 -43 -5
-59 -3 -6 -1 -11 5 -11 6 0 8 -5 3 -12 -11 -18 -13 -38 -3 -38 8 0 5 -43 -5
-59 -3 -6 -1 -11 5 -11 6 0 8 -5 3 -12 -11 -18 -13 -38 -3 -38 8 0 5 -43 -5
-59 -3 -6 -1 -11 5 -11 6 0 8 -5 3 -12 -11 -18 -13 -38 -3 -38 8 0 5 -43 -5
-59 -3 -6 -1 -11 5 -11 6 0 8 -5 3 -12 -11 -18 -13 -38 -3 -38 8 0 5 -43 -5
-59 -3 -6 -1 -11 6 -11 9 0 9 -3 0 -14 -8 -10 -9 -16 -1 -21 7 -4 7 -12 0 -26
-8 -13 -7 -19 0 -19 6 0 8 -5 3 -12 -11 -18 -13 -38 -3 -38 8 0 5 -43 -5 -59
-3 -6 -1 -11 5 -11 6 0 8 -5 3 -12 -11 -18 -13 -38 -3 -38 8 0 5 -43 -5 -59
-3 -6 -1 -11 6 -11 9 0 9 -3 0 -14 -8 -10 -9 -16 -1 -21 7 -4 7 -12 0 -26 -8
-13 -7 -19 0 -19 6 0 8 -5 3 -12 -11 -18 -13 -38 -3 -38 8 0 5 -43 -5 -59 -3
-6 -1 -11 5 -11 6 0 8 -5 3 -12 -11 -18 -13 -38 -3 -38 8 0 5 -43 -5 -59 -3
-6 -1 -11 6 -11 9 0 9 -3 0 -14 -8 -10 -9 -16 -1 -21 7 -4 7 -12 0 -26 -8 -13
-7 -19 0 -19 6 0 8 -5 3 -12 -11 -18 -13 -38 -3 -38 8 0 5 -43 -5 -59 -3 -6
-1 -11 5 -11 6 0 8 -5 3 -12 -11 -18 -13 -38 -3 -38 8 0 5 -43 -5 -59 -3 -6
-1 -11 5 -11 6 0 8 -5 3 -12 -11 -18 -13 -38 -3 -38 8 0 5 -43 -5 -59 -3 -6
-1 -11 5 -11 6 0 8 -5 3 -12 -11 -18 -13 -38 -3 -38 8 0 5 -43 -5 -59 -3 -6
-1 -11 5 -11 6 0 8 -5 3 -12 -11 -18 -13 -38 -3 -38 8 0 5 -43 -5 -59 -3 -6
-1 -11 5 -11 6 0 8 -5 3 -12 -11 -18 -13 -38 -3 -38 8 0 5 -43 -5 -59 -3 -6
-1 -11 5 -11 6 0 8 -5 3 -12 -11 -18 -13 -38 -3 -38 8 0 5 -43 -5 -59 -3 -6
-1 -11 5 -11 6 0 8 -5 3 -12 -10 -17 -13 -38 -5 -38 9 0 7 -103 -1 -118 -4 -6
-3 -14 3 -17 8 -5 8 -11 0 -20 -6 -7 -7 -15 -3 -18 10 -6 9 -89 0 -104 -4 -7
-3 -15 3 -18 8 -5 8 -11 0 -20 -8 -10 -8 -15 1 -20 8 -6 7 -10 -2 -16 -8 -5
-9 -9 -3 -9 12 0 11 -41 -1 -59 -3 -6 -1 -11 5 -11 6 0 8 -5 3 -12 -11 -18
-13 -38 -3 -38 8 0 5 -43 -5 -59 -3 -6 -1 -11 5 -11 6 0 8 -5 3 -12 -11 -18
-13 -38 -3 -38 8 0 5 -48 -4 -57 -3 -4 -1 -12 5 -20 9 -10 8 -13 -2 -13 -11 0
-11 -2 1 -10 12 -8 12 -10 1 -10 -10 0 -11 -3 -3 -13 6 -7 7 -18 3 -26 -12
-19 -1 -51 18 -52 21 -1 1596 -1 1635 0 21 1 27 5 22 16 -3 8 0 15 7 15 7 0 3
6 -7 12 -19 11 -19 11 -1 24 10 8 14 14 9 14 -13 0 -12 63 1 72 6 5 5 8 -4 8
-7 0 -11 6 -8 14 3 7 1 18 -5 24 -6 6 -6 12 3 17 8 6 10 4 4 -5 -5 -8 -4 -11
3 -7 12 8 4 49 -12 59 -7 5 -3 8 9 8 15 0 17 3 7 9 -17 11 -17 21 0 32 11 7
11 9 -1 9 -7 0 -11 6 -8 14 3 7 1 18 -5 24 -6 6 -6 12 3 17 8 6 10 4 4 -5 -5
-8 -4 -11 3 -7 12 8 4 49 -12 59 -7 5 -3 8 9 8 15 0 17 3 7 9 -8 4 -14 12 -14
16 0 4 6 12 14 16 11 7 11 9 -1 9 -7 0 -11 6 -8 14 3 7 1 18 -5 24 -6 6 -6 12
3 17 8 6 10 4 4 -5 -5 -8 -4 -11 3 -7 12 8 4 49 -12 59 -7 5 -3 8 9 8 15 0 17
3 7 9 -8 4 -14 12 -14 16 0 4 6 12 14 16 11 7 11 9 -1 9 -7 0 -11 6 -8 14 3 7
1 18 -5 24 -6 6 -6 12 3 17 8 6 10 4 4 -5 -5 -8 -4 -11 2 -7 13 8 4 57 -11 58
-6 0 -2 4 9 9 11 5 15 9 9 9 -11 1 -11 41 0 60 4 5 1 13 -5 17 -8 5 -9 3 -4
-6 5 -9 4 -11 -4 -6 -8 5 -9 12 -3 19 5 7 8 22 6 35 -2 12 0 22 5 22 5 0 7 9
4 20 -3 11 -10 17 -17 14 -6 -3 -2 2 8 10 11 9 15 16 10 16 -11 0 -11 80 0 98
3 6 1 14 -5 18 -8 5 -9 3 -4 -6 5 -9 4 -11 -4 -6 -8 5 -9 12 -3 19 5 7 8 22 6
35 -2 12 0 22 5 22 5 0 7 9 4 20 -3 11 -10 17 -17 14 -6 -3 -2 2 8 10 11 9 15
16 10 16 -11 0 -11 80 0 98 3 6 1 14 -5 18 -8 5 -9 3 -4 -6 5 -9 4 -11 -4 -6
-8 5 -9 12 -3 19 5 7 8 22 6 35 -2 12 0 22 4 22 4 0 8 9 8 19 0 11 -4 18 -8
15 -4 -2 -6 5 -5 16 1 11 4 20 7 20 4 0 7 7 7 15 0 12 -3 12 -15 2 -13 -10
-14 -9 -4 9 6 11 8 40 6 63 -4 34 -2 41 8 35 10 -6 10 -4 2 7 -6 8 -14 23 -18
33 -6 17 -5 17 11 5 9 -8 14 -9 10 -3 -3 6 -9 25 -12 43 -4 24 -2 31 6 25 8
-5 9 -3 3 7 -13 21 -14 39 -1 39 7 0 5 5 -3 10 -8 5 -11 10 -6 10 5 0 2 8 -5
18 -12 15 -12 16 2 5 9 -7 19 -9 23 -5 4 4 6 2 4 -3 -2 -6 2 -12 7 -13 21 -7
36 -26 31 -38 -3 -8 2 -11 15 -9 10 2 19 -2 19 -8 0 -7 9 -19 20 -27 11 -8 20
-20 20 -28 0 -7 14 -18 30 -23 17 -6 30 -18 30 -26 0 -9 6 -13 14 -10 10 4 14
0 11 -13 -2 -11 1 -19 8 -17 7 1 11 -4 9 -11 -1 -8 2 -11 8 -7 5 3 10 1 10 -4
0 -6 7 -11 16 -11 8 0 12 -4 9 -10 -3 -5 1 -10 10 -10 9 0 13 -4 10 -10 -3 -5
-1 -10 5 -10 6 0 8 -4 5 -10 -3 -6 1 -7 9 -4 11 4 16 0 16 -10 0 -10 9 -16 23
-16 16 0 18 -3 9 -9 -11 -7 -10 -9 3 -15 9 -3 13 -10 10 -16 -3 -6 1 -7 10 -4
11 5 18 0 22 -15 3 -11 10 -21 15 -21 5 0 6 6 2 13 -4 6 -4 9 0 5 4 -3 7 -9 7
-12 -1 -4 10 -17 24 -30 13 -13 21 -27 17 -31 -4 -5 -2 -5 4 -2 6 4 20 -1 30
-9 10 -9 12 -12 4 -8 -13 7 -13 5 -1 -9 7 -9 20 -17 28 -17 8 0 11 -4 8 -10
-3 -5 -1 -10 5 -10 15 0 60 -46 60 -61 0 -7 3 -10 6 -6 8 8 34 -18 34 -33 0
-6 4 -8 10 -5 5 3 10 1 10 -5 0 -6 5 -8 10 -5 6 4 10 3 9 -2 -4 -23 2 -32 19
-26 9 3 14 3 10 -1 -9 -11 14 -36 26 -28 5 3 7 -2 3 -11 -3 -9 -3 -16 1 -14
12 3 62 -50 54 -58 -4 -4 -2 -6 3 -4 6 1 18 -1 28 -6 14 -6 15 -10 6 -22 -7
-8 -8 -13 -3 -12 21 4 44 -2 42 -10 -2 -5 1 -9 5 -10 16 -1 38 -31 31 -42 -4
-7 -3 -9 3 -6 5 4 25 -5 44 -20 19 -14 26 -23 17 -20 -10 3 -20 2 -23 -4 -4
-5 -3 -9 2 -8 22 4 43 -2 38 -11 -3 -6 4 -10 17 -10 18 0 20 -2 8 -10 -13 -8
-12 -10 3 -10 9 0 17 -5 17 -11 0 -5 6 -7 13 -3 7 5 7 1 -3 -12 -8 -10 -10
-16 -6 -12 5 4 16 2 24 -5 13 -10 14 -9 7 2 -5 10 -4 12 3 7 7 -4 12 -16 12
-26 0 -10 9 -22 20 -25 11 -3 20 -11 20 -16 0 -6 5 -7 10 -4 6 3 10 -4 11 -17
0 -13 3 -18 6 -11 3 8 12 5 27 -10 13 -12 22 -24 20 -27 -1 -4 6 -11 17 -18
14 -9 19 -9 19 0 0 6 3 8 6 5 4 -4 1 -14 -7 -24 -9 -11 -10 -14 -1 -9 7 4 12
2 12 -5 0 -7 3 -10 6 -6 8 8 34 -18 34 -33 0 -6 4 -9 9 -5 5 3 12 -4 16 -15 3
-11 13 -20 21 -20 8 0 14 -5 14 -11 0 -5 4 -7 10 -4 6 3 7 -1 4 -9 -5 -12 0
-16 17 -16 19 0 21 -2 9 -10 -13 -9 -13 -10 0 -10 9 0 22 -9 30 -19 7 -11 18
-17 24 -14 5 4 7 -1 3 -10 -6 -15 7 -22 34 -19 4 1 6 -6 5 -15 0 -9 6 -18 14
-20 13 -4 13 -3 0 7 -13 10 -13 11 0 7 8 -2 14 -10 12 -16 -1 -7 4 -19 13 -27
8 -9 15 -13 15 -9 0 4 7 -1 16 -9 8 -9 12 -20 9 -26 -4 -6 -3 -10 2 -9 4 1 16
1 27 0 15 -1 16 -4 6 -16 -10 -12 -8 -14 9 -10 12 2 19 0 16 -4 -3 -5 2 -11
10 -15 8 -3 15 -13 15 -22 0 -14 3 -14 15 -4 13 11 14 10 9 -5 -5 -13 -4 -16
4 -11 7 4 12 1 12 -9 0 -9 9 -19 20 -22 11 -3 20 -12 20 -20 0 -8 5 -11 12 -7
7 5 9 2 5 -9 -4 -11 -2 -14 9 -10 10 3 14 -2 14 -18 0 -19 2 -21 10 -9 8 12
10 10 10 -9 0 -21 2 -22 17 -10 11 10 14 10 9 2 -4 -8 -2 -13 4 -13 6 0 8 -4
5 -10 -3 -5 1 -10 10 -10 9 0 13 -4 10 -10 -5 -9 7 -14 27 -11 4 0 10 -8 13
-19 6 -18 17 -25 38 -21 4 1 3 -8 -3 -19 -9 -16 -8 -18 5 -14 12 5 14 2 8 -12
-6 -17 -5 -18 12 -4 17 14 18 13 12 -4 -6 -15 -4 -17 13 -13 11 3 20 1 20 -4
0 -5 -6 -9 -12 -10 -7 0 1 -7 17 -14 17 -8 26 -14 20 -15 -5 0 -2 -5 7 -11 10
-5 15 -17 12 -27 -4 -12 -3 -14 3 -4 8 10 15 6 34 -17 13 -17 30 -31 38 -31 8
0 12 -3 8 -6 -7 -8 17 -34 32 -34 6 0 11 -7 11 -17 0 -9 3 -14 6 -10 9 8 33
-16 26 -27 -3 -5 3 -6 14 -2 10 4 16 4 12 1 -9 -9 22 -44 36 -41 6 2 8 1 3 -1
-4 -3 -7 -10 -7 -15 0 -6 3 -8 7 -5 3 4 14 -4 23 -19 10 -14 21 -26 26 -25 5
0 8 -6 8 -13 -1 -8 8 -12 22 -10 13 1 22 -2 19 -7 -3 -4 5 -18 19 -30 14 -12
23 -25 21 -29 -7 -11 24 -22 37 -13 7 3 8 1 4 -5 -8 -14 31 -55 44 -47 6 4 10
1 10 -5 0 -16 26 -40 35 -32 4 4 6 3 5 -3 -1 -5 -2 -18 -1 -29 1 -16 3 -17 18
-5 11 10 14 10 9 1 -4 -6 -2 -12 3 -12 6 0 11 -5 11 -11 0 -6 -7 -8 -16 -5 -8
3 -13 2 -10 -3 5 -8 -42 -36 -56 -33 -5 1 -8 -6 -8 -15 0 -15 -2 -16 -10 -3
-6 10 -10 11 -10 3 0 -7 -7 -13 -15 -13 -8 0 -15 -5 -15 -12 0 -6 -3 -8 -6 -5
-4 4 -15 -3 -25 -15 -11 -11 -19 -18 -19 -13 0 4 -8 1 -17 -6 -11 -9 -14 -10
-9 -2 5 9 2 11 -8 7 -9 -3 -13 -10 -10 -15 5 -8 -9 -13 -28 -10 -5 0 -8 -4 -8
-10 0 -5 -5 -7 -10 -4 -6 3 -13 -1 -16 -9 -3 -9 -10 -13 -15 -10 -5 3 -12 -2
-15 -10 -3 -9 -10 -13 -15 -10 -5 3 -9 0 -9 -7 0 -9 -3 -9 -14 0 -11 9 -15 8
-20 -5 -4 -9 -12 -14 -21 -10 -9 3 -18 -1 -21 -9 -4 -8 -13 -15 -21 -15 -8 0
-12 -4 -9 -8 3 -5 -5 -8 -17 -7 -12 1 -25 -3 -29 -9 -4 -6 -18 -11 -30 -11
-13 -1 -22 -6 -21 -13 2 -6 -4 -9 -12 -6 -8 4 -15 2 -15 -3 0 -5 -9 -9 -20
-10 -11 -1 -34 -11 -50 -23 -21 -15 -30 -17 -31 -8 0 10 -2 10 -6 0 -2 -6 -9
-10 -14 -6 -5 3 -9 0 -9 -6 0 -6 -4 -9 -9 -5 -5 3 -12 1 -16 -5 -3 -5 -15 -10
-26 -10 -10 0 -19 -5 -19 -11 0 -5 -4 -8 -9 -4 -5 3 -12 1 -16 -4 -3 -6 -12
-8 -19 -5 -8 3 -17 1 -21 -5 -3 -6 -15 -11 -26 -11 -11 0 -18 -4 -15 -9 4 -5
-5 -8 -19 -6 -14 1 -25 -2 -25 -7 0 -5 -5 -6 -10 -3 -6 4 -17 1 -25 -5 -8 -6
-18 -9 -24 -6 -5 3 -11 -1 -14 -9 -4 -8 -15 -12 -27 -10 -11 2 -20 -1 -20 -7
0 -6 -3 -8 -7 -5 -3 4 -13 1 -21 -6 -13 -10 -15 -9 -8 3 5 9 2 8 -7 -2 -10
-13 -17 -14 -25 -6 -8 8 -13 7 -17 -5 -4 -9 -15 -14 -26 -12 -10 2 -19 -1 -19
-7 0 -6 -7 -5 -17 3 -10 8 -14 9 -10 2 4 -6 3 -14 -3 -18 -5 -3 -10 0 -10 7 0
10 -2 10 -9 -1 -5 -8 -16 -11 -25 -8 -10 4 -19 1 -22 -7 -3 -7 -18 -12 -34
-11 -18 1 -31 -4 -35 -13 -4 -12 -9 -12 -17 -4 -8 8 -15 9 -25 1 -7 -7 -13 -8
-13 -3 0 5 -5 2 -10 -6 -7 -11 -10 -11 -10 -2 0 10 -5 10 -22 1 -13 -7 -38
-13 -57 -14 -19 0 -37 -7 -39 -14 -4 -11 -6 -11 -13 0 -7 12 -9 12 -9 0 0 -11
-3 -11 -17 0 -14 12 -16 12 -8 0 6 -11 4 -13 -8 -8 -10 4 -17 1 -17 -6 0 -9
-2 -9 -8 0 -5 8 -16 8 -44 -2 -21 -7 -35 -8 -32 -3 4 6 -2 5 -14 -1 -10 -6
-29 -8 -41 -6 -12 2 -19 0 -16 -5 3 -5 1 -11 -5 -15 -5 -3 -10 -1 -10 5 0 8
-6 7 -21 -1 -16 -8 -20 -8 -14 1 6 9 3 9 -13 1 -27 -14 -35 -14 -26 1 4 7 3 8
-4 4 -7 -4 -12 -15 -13 -24 0 -14 -2 -13 -9 3 -5 11 -9 14 -9 6 -1 -11 -4 -11
-16 -1 -12 10 -15 10 -15 0 0 -9 -4 -9 -17 1 -10 9 -14 9 -10 2 6 -9 -2 -11
-27 -9 -19 1 -33 -1 -31 -4 2 -3 -18 -5 -46 -5 -36 2 -52 -2 -59 -14 -5 -9
-10 -11 -10 -5 0 12 -28 12 -47 1 -6 -4 -14 -3 -18 3 -4 6 -12 7 -18 3 -16
-10 -48 -10 -69 -1 -9 5 -18 3 -21 -5 -5 -13 -67 -14 -88 -2 -8 5 -10 4 -5 -3
4 -7 1 -12 -9 -12 -10 0 -13 5 -9 12 5 7 3 8 -6 3 -18 -11 -62 -12 -84 -2 -13
6 -16 6 -12 -2 10 -15 -7 -14 -23 2 -11 10 -13 9 -8 -5 4 -12 2 -15 -8 -11 -8
3 -13 9 -10 13 3 5 -5 6 -17 2 -15 -4 -19 -2 -13 7 6 10 3 11 -14 2 -15 -8
-21 -8 -21 -1 0 7 -6 8 -17 1 -11 -6 -24 -6 -35 0 -10 5 -18 6 -18 2 0 -4 -11
-8 -25 -8 -14 0 -25 4 -25 8 0 5 -4 6 -9 2 -5 -3 -12 -1 -16 5 -3 6 -17 8 -31
6 -13 -3 -24 -1 -24 3 0 4 -7 8 -15 8 -8 0 -12 -4 -9 -8 2 -4 -5 -7 -16 -6
-11 1 -20 4 -20 7 0 4 -28 7 -62 7 -88 1 -90 2 -82 14 5 8 1 8 -14 0 -14 -8
-23 -8 -27 -1 -5 8 -11 8 -20 0 -9 -8 -14 -6 -19 5 -3 9 -10 14 -15 11 -5 -4
-20 -2 -34 3 -16 6 -28 6 -36 -2 -8 -8 -11 -8 -11 1 0 8 -13 12 -35 10 -19 -1
-40 3 -46 9 -9 9 -18 9 -32 2 -14 -8 -18 -8 -13 0 7 11 -17 16 -57 13 -10 -1
-16 2 -13 7 3 4 -6 7 -19 5 -14 -1 -28 2 -31 7 -3 6 -11 5 -20 -2 -11 -9 -14
-8 -14 4 0 16 -16 17 -39 3 -10 -6 -12 -5 -7 2 4 7 0 13 -11 14 -10 0 -23 2
-30 2 -6 1 -15 5 -19 9 -4 4 -18 7 -31 7 -12 0 -23 5 -23 11 0 8 -4 8 -13 1
-10 -9 -19 -7 -35 4 -12 8 -22 12 -22 9 0 -3 -10 0 -22 7 -13 7 -27 11 -32 10
-4 -2 -14 2 -22 9 -7 6 -18 8 -24 4 -5 -3 -10 -2 -10 4 0 5 -12 8 -26 5 -15
-3 -23 -1 -20 5 4 5 2 12 -4 16 -5 3 -10 2 -10 -3 0 -6 -9 -8 -20 -5 -11 3
-18 8 -16 12 3 4 -7 8 -22 9 -14 1 -28 6 -31 11 -3 4 -17 7 -29 6 -13 -1 -30
4 -37 12 -8 7 -23 13 -35 13 -12 0 -19 4 -16 9 3 5 -6 8 -20 9 -15 0 -30 5
-34 11 -4 7 -17 13 -28 14 -12 1 -22 5 -22 9 0 4 -7 5 -15 2 -8 -4 -15 -1 -15
6 0 6 -4 8 -10 5 -5 -3 -10 -1 -10 5 0 7 -7 9 -15 6 -9 -3 -18 1 -21 8 -3 8
-14 13 -24 11 -10 -2 -21 3 -24 11 -3 9 -10 13 -15 10 -5 -4 -15 0 -23 7 -7 8
-18 12 -24 10 -7 -2 -18 3 -27 11 -8 8 -17 12 -21 9 -3 -4 -6 -1 -6 6 0 7 -4
10 -9 7 -5 -3 -20 3 -34 14 -14 11 -29 19 -34 18 -4 -1 -18 3 -29 10 -12 6
-24 8 -28 4 -4 -3 -4 2 0 12 6 16 4 17 -14 7 -17 -9 -22 -8 -26 7 -3 9 -17 22
-31 29 -19 8 -24 8 -19 0 3 -7 0 -5 -8 3 -7 9 -22 14 -33 12 -12 -2 -16 0 -9
5 9 6 8 11 -1 20 -11 10 -15 10 -18 0 -3 -7 -6 -4 -6 6 -1 10 -6 15 -11 12 -6
-3 -23 3 -39 14 -16 12 -32 21 -36 21 -3 0 -13 7 -22 15 -8 8 -19 13 -24 10
-5 -4 -9 0 -9 8 0 10 -7 14 -22 10 -19 -4 -20 -3 -8 6 13 9 12 11 -4 11 -10 0
-27 10 -37 22 -11 11 -19 16 -19 9 0 -7 -11 0 -25 14 -14 14 -30 25 -34 25 -4
0 -20 11 -35 25 -15 14 -32 25 -37 25 -6 0 -17 7 -26 15 -8 8 -19 13 -24 10
-5 -4 -9 1 -9 9 0 8 -5 18 -12 22 -7 5 -8 3 -3 -6 4 -7 -7 -2 -25 11 -49 35
-69 56 -62 65 4 4 1 4 -7 -1 -9 -5 -18 -2 -25 7 -6 8 -26 22 -43 32 -18 9 -33
19 -33 22 0 3 5 2 10 -1 6 -3 10 -4 10 -1 0 3 -15 12 -34 20 -19 8 -37 24 -41
35 -3 12 -13 21 -21 21 -8 0 -14 4 -14 10 0 5 -3 9 -7 9 -19 -3 -34 2 -29 9 3
5 -4 16 -15 25 -10 9 -19 14 -19 10 0 -3 -8 3 -17 14 -10 11 -26 22 -35 26
-10 3 -18 13 -18 20 0 7 -11 20 -25 27 -13 7 -22 16 -20 20 7 11 -24 22 -37
13 -7 -3 -8 -1 -4 5 4 7 3 12 -3 12 -5 0 -13 10 -16 21 -6 17 -9 19 -16 8 -7
-11 -9 -11 -9 2 0 9 -11 24 -24 35 -14 10 -22 22 -19 28 4 5 -1 7 -11 3 -10
-4 -15 -3 -11 3 3 6 -1 13 -9 16 -8 3 -18 14 -21 25 -4 11 -11 17 -16 14 -5
-4 -10 -1 -10 4 -1 6 -2 15 -3 20 0 5 -5 13 -10 18 -5 5 -6 3 -2 -4 4 -7 2
-13 -3 -13 -6 0 -11 9 -11 21 0 11 -4 18 -9 15 -5 -3 -11 3 -14 14 -3 11 -17
24 -31 30 -17 6 -26 17 -26 30 0 12 -4 18 -10 15 -6 -3 -10 -1 -10 5 0 15 -26
41 -34 33 -3 -4 -6 1 -6 10 0 10 -8 17 -17 17 -15 0 -16 2 -3 10 13 9 7 14
-12 11 -4 0 -5 6 -2 14 4 9 0 15 -10 15 -9 0 -16 8 -16 20 0 12 -7 20 -16 20
-11 0 -14 5 -10 16 4 12 1 14 -14 9 -14 -4 -18 -2 -15 7 3 7 -11 30 -31 50
-21 22 -33 42 -28 49 4 7 3 10 -2 7 -5 -3 -14 0 -21 7 -10 11 -10 14 0 18 7 3
-1 10 -16 16 -16 6 -25 16 -22 22 4 6 -7 24 -24 41 -18 17 -30 36 -28 42 4 13
-17 36 -35 36 -10 0 -9 3 2 10 11 7 11 10 2 10 -7 0 -19 14 -26 31 -7 17 -16
30 -19 30 -4 -1 -7 2 -8 7 0 4 -8 15 -16 25 -13 14 -13 17 -2 17 10 1 9 4 -4
11 -9 5 -21 8 -26 5 -4 -3 -8 7 -7 22 1 28 -14 53 -27 45 -4 -2 -7 -1 -6 4 1
4 0 11 -1 16 -1 4 -3 13 -4 20 -1 6 -8 11 -16 9 -8 -2 -12 0 -8 3 4 4 2 17 -4
29 -7 11 -11 24 -10 29 1 4 -3 7 -8 7 -6 0 -10 5 -10 11 0 7 -8 18 -17 25 -14
10 -15 13 -4 14 11 0 10 4 -5 16 -10 8 -12 12 -4 8 11 -6 10 -2 -3 13 -9 11
-14 23 -10 28 5 4 2 5 -4 1 -7 -4 -13 -2 -13 4 0 6 -3 9 -7 7 -5 -3 -9 7 -10
21 0 15 -6 28 -12 30 -6 2 -11 12 -11 21 0 10 -3 21 -7 25 -5 4 -8 11 -8 14
-2 20 -18 52 -26 52 -6 0 -8 4 -5 9 4 5 2 11 -4 13 -5 1 -11 15 -12 31 -1 15
-6 27 -10 27 -4 0 -8 7 -8 16 0 9 -5 12 -12 8 -6 -4 -8 -3 -4 4 3 6 1 16 -6
24 -16 17 -19 48 -5 48 6 0 2 7 -10 15 -13 9 -20 22 -17 30 4 8 1 15 -6 15 -6
0 -8 5 -5 10 3 6 2 10 -3 10 -6 0 -13 7 -16 16 -4 10 -2 13 7 8 8 -6 8 -3 -1
9 -8 9 -11 20 -8 26 3 5 -1 12 -10 15 -8 3 -13 10 -10 15 3 5 -1 14 -10 21
-12 10 -12 15 -2 21 9 6 8 10 -5 15 -14 5 -15 9 -6 20 6 8 7 14 3 14 -5 0 -15
9 -22 21 -8 12 -9 18 -3 15 7 -4 8 -1 5 8 -3 9 -11 16 -16 16 -6 0 -5 6 2 15
10 12 9 16 -3 21 -9 3 -14 14 -12 25 2 10 -4 23 -13 29 -12 6 -13 9 -3 10 9 0
10 4 4 13 -6 6 -9 20 -8 30 2 10 -1 14 -8 10 -6 -4 -8 0 -4 10 3 10 2 17 -4
17 -6 0 -5 8 2 21 7 13 7 19 1 15 -12 -7 -26 29 -18 43 4 5 2 11 -4 13 -5 1
-11 15 -12 31 -1 15 -6 27 -11 27 -4 0 -3 8 2 18 7 12 7 22 0 29 -5 5 -11 26
-12 47 -2 21 -8 41 -13 44 -5 4 -9 17 -8 30 1 12 -3 22 -8 22 -5 0 -4 10 3 21
8 15 8 19 0 15 -6 -4 -11 0 -11 9 0 9 4 14 9 11 5 -4 4 5 -2 19 -7 14 -16 25
-21 25 -5 0 -3 7 4 15 10 12 10 18 -1 32 -12 15 -12 16 1 8 12 -7 12 -5 -1 11
-11 12 -15 32 -13 57 2 22 -1 37 -7 37 -6 0 -9 9 -6 20 3 11 0 20 -6 20 -7 0
-3 7 7 15 11 8 16 15 10 15 -16 0 -33 47 -21 59 8 8 7 11 -2 11 -7 0 -9 5 -4
13 12 20 13 40 0 56 -10 12 -9 13 3 6 13 -8 13 -6 2 8 -9 11 -14 46 -14 104 0
48 -4 93 -9 98 -4 6 -7 33 -7 61 1 27 -2 55 -6 62 -4 7 -3 12 2 12 10 0 9 30
-2 48 -4 6 -3 12 2 12 5 0 8 12 6 27 -1 15 1 32 5 38 5 5 8 47 9 93 0 49 5 89
12 97 10 12 10 15 -1 15 -11 0 -11 2 0 9 13 8 13 12 0 27 -12 16 -12 17 1 9
13 -8 13 -7 1 8 -8 10 -9 17 -3 17 6 0 10 17 9 40 -2 31 1 39 12 35 11 -4 11
-2 2 9 -6 7 -8 22 -4 31 4 13 3 16 -5 11 -13 -8 -6 20 10 41 5 6 8 17 7 25 -4
34 2 69 11 63 13 -8 8 18 -5 27 -6 5 -6 8 2 8 6 0 10 9 8 20 -2 11 0 20 4 20
5 0 11 9 14 20 3 10 2 19 -2 18 -18 -2 -21 4 -7 17 8 8 13 26 10 39 -2 14 2
31 11 39 8 8 12 24 10 36 -2 11 1 23 6 27 6 4 6 11 -1 19 -8 10 -7 16 7 24 11
6 13 11 5 11 -7 0 -10 5 -7 10 4 6 9 23 11 37 3 15 9 30 13 33 4 3 7 15 6 27
-1 12 2 20 6 17 4 -2 8 4 9 13 2 54 6 73 13 73 5 0 5 5 2 10 -3 6 -1 10 5 10
7 0 8 6 0 19 -8 16 -6 21 9 26 13 4 17 12 13 32 -3 15 -1 24 5 20 5 -4 10 7
10 25 0 19 7 37 19 46 14 10 16 16 6 19 -10 4 -8 9 5 20 10 8 12 12 6 8 -7 -3
-13 -1 -13 4 0 6 5 11 11 11 6 0 9 7 6 15 -4 8 -2 17 3 20 6 4 10 14 10 24 0
10 10 26 23 35 12 9 16 14 10 11 -15 -7 -18 11 -3 20 6 4 8 10 5 15 -3 5 0 12
6 15 5 4 8 13 5 21 -3 7 3 18 12 23 9 6 13 11 8 11 -5 0 -2 8 5 17 12 14 12
16 -1 9 -8 -4 -6 0 4 8 11 9 17 16 13 16 -4 0 2 16 13 36 11 19 18 39 15 45
-4 5 -1 9 5 9 6 0 9 4 6 9 -3 5 1 14 9 21 8 7 12 16 9 21 -3 5 0 9 6 9 6 0 8
5 5 10 -3 6 0 13 9 16 8 3 12 12 9 20 -3 8 0 14 6 14 6 0 8 7 4 17 -4 11 -3
14 5 9 8 -5 10 -2 6 8 -3 9 -1 16 5 16 6 0 11 5 11 11 0 5 -5 7 -12 3 -7 -4
-8 -3 -4 5 4 6 11 9 15 7 11 -7 35 40 26 53 -4 7 -1 10 7 9 8 -2 12 4 10 16
-2 10 1 15 6 12 12 -7 24 22 15 36 -3 7 -1 8 5 4 11 -6 14 -1 11 20 0 3 10 15
24 28 13 12 22 27 19 34 -2 7 3 21 12 31 9 10 13 21 9 25 -5 4 -1 6 7 4 8 -1
14 3 13 10 -2 6 2 12 8 12 5 0 8 4 4 9 -3 6 4 15 15 21 11 6 18 15 15 21 -13
20 20 3 42 -22z m4863 -181 c0 -6 7 -5 16 3 13 10 17 10 24 -1 4 -7 14 -10 22
-7 8 3 21 1 29 -3 8 -6 16 -4 21 3 6 9 8 9 8 0 0 -6 9 -9 22 -5 16 4 19 2 13
-9 -7 -11 -5 -11 10 1 10 8 16 10 12 4 -4 -7 5 -11 26 -12 17 0 33 -6 36 -13
2 -8 6 -7 12 2 7 11 9 10 9 -3 0 -11 5 -15 15 -12 8 4 23 0 32 -7 9 -8 14 -9
10 -2 -11 17 19 10 42 -11 11 -10 25 -15 30 -11 6 3 14 -1 17 -9 3 -9 14 -16
25 -16 10 0 25 -10 33 -22 11 -16 16 -18 17 -8 0 11 2 11 6 3 2 -7 11 -13 19
-13 8 0 14 -4 14 -9 0 -5 9 -11 20 -14 11 -3 20 -12 20 -21 0 -9 5 -16 11 -16
5 0 7 5 3 12 -4 7 -3 8 4 4 7 -4 12 -14 12 -22 0 -8 6 -13 13 -12 6 2 11 -3 9
-9 -1 -7 3 -13 9 -13 14 0 39 -25 39 -39 0 -6 7 -11 15 -11 9 0 12 -6 8 -15
-3 -10 0 -15 8 -13 8 2 13 -2 12 -9 -2 -6 6 -14 16 -18 13 -4 18 -14 16 -30
-1 -13 1 -22 6 -19 10 6 44 -56 40 -75 -1 -7 2 -10 7 -7 6 3 12 -1 16 -9 3 -8
0 -15 -7 -15 -8 -1 -7 -5 3 -13 15 -12 22 -30 23 -54 0 -7 4 -13 8 -13 4 0 7
-15 7 -34 0 -19 4 -41 8 -48 5 -7 9 -22 9 -33 0 -11 4 -26 8 -32 5 -7 4 -13
-1 -13 -5 0 -7 -13 -4 -30 3 -19 8 -27 16 -23 7 4 6 1 -1 -9 -7 -8 -10 -18 -6
-22 11 -10 10 -96 -1 -96 -5 0 -3 -6 3 -13 6 -8 8 -17 4 -21 -4 -4 -9 -18 -11
-32 -2 -19 1 -24 10 -19 7 4 6 1 -2 -7 -9 -7 -15 -24 -14 -38 1 -14 -2 -32 -7
-41 -5 -10 -3 -21 4 -29 9 -10 9 -11 0 -6 -9 5 -13 -2 -13 -26 0 -25 -3 -29
-10 -18 -5 8 -10 10 -10 5 0 -6 5 -16 12 -23 9 -9 9 -12 -1 -12 -7 0 -10 -4
-7 -9 3 -5 -1 -14 -10 -22 -8 -7 -14 -24 -12 -38 1 -14 -2 -25 -8 -24 -5 1
-11 -8 -11 -20 -1 -12 -9 -27 -17 -33 -9 -6 -13 -13 -10 -17 8 -7 -17 -49 -39
-65 -10 -8 -16 -21 -13 -29 3 -8 1 -11 -4 -8 -6 3 -10 1 -10 -5 0 -6 -4 -8
-10 -5 -5 3 -10 1 -10 -5 0 -14 -82 -96 -92 -92 -4 1 -8 -5 -8 -13 0 -13 -6
-17 -26 -14 -11 1 -32 -36 -26 -46 3 -5 -2 -4 -11 4 -12 9 -17 10 -17 2 0 -7
-5 -9 -10 -6 -6 3 -13 -1 -16 -9 -3 -9 -10 -13 -15 -10 -5 3 -9 0 -9 -5 0 -6
-9 -11 -21 -11 -11 0 -18 -4 -15 -9 4 -5 -5 -8 -20 -6 -16 1 -24 -2 -21 -10 3
-6 0 -12 -6 -13 -43 -4 -57 -7 -57 -15 0 -5 -7 -7 -15 -3 -8 3 -15 1 -15 -4 0
-5 -6 -7 -14 -4 -8 3 -17 1 -20 -5 -4 -6 -13 -8 -21 -4 -9 3 -15 -1 -15 -8 0
-11 -3 -11 -10 1 -8 13 -10 12 -10 -4 0 -15 -3 -16 -15 -6 -12 10 -15 10 -15
0 0 -9 -4 -9 -17 1 -9 8 -14 9 -10 3 4 -7 -3 -14 -18 -16 -13 -3 -22 -1 -19 3
9 15 -9 10 -29 -8 -11 -10 -17 -12 -13 -5 8 14 -12 16 -33 3 -9 -6 -22 -6 -33
0 -12 6 -18 6 -18 0 0 -10 -32 -7 -50 4 -6 3 -10 3 -10 -2 0 -9 -257 -10 -266
0 -4 3 -16 2 -26 -4 -14 -8 -23 -8 -31 0 -7 7 -16 7 -30 0 -13 -8 -22 -8 -30
0 -7 7 -16 7 -29 0 -13 -7 -23 -7 -31 0 -7 5 -18 7 -24 3 -15 -10 -342 -7
-373 3 -30 10 -53 32 -46 44 3 5 -3 7 -14 4 -14 -4 -20 0 -20 11 0 9 -11 21
-25 26 -14 5 -25 12 -25 15 0 4 5 3 11 0 6 -4 5 2 -2 13 -7 12 -18 18 -24 16
-5 -3 -3 0 5 8 18 15 15 51 -3 42 -7 -3 -3 2 7 10 11 9 15 16 10 16 -11 0 -11
80 0 98 3 6 1 14 -5 18 -8 5 -9 3 -4 -6 5 -9 4 -11 -4 -6 -8 5 -9 12 -3 19 5
7 8 22 6 35 -2 12 0 22 5 22 5 0 7 9 4 20 -3 11 -10 17 -17 14 -6 -3 -2 2 8
10 11 9 16 16 10 16 -5 0 -9 23 -10 50 0 28 3 50 7 50 4 0 5 9 2 20 -3 11 -10
17 -17 14 -6 -3 -2 2 8 10 11 9 15 16 10 16 -11 0 -11 80 0 98 3 6 1 14 -5 18
-8 5 -9 3 -4 -6 5 -9 4 -11 -4 -6 -8 5 -9 12 -3 19 5 7 8 22 6 35 -2 12 0 22
5 22 5 0 7 9 4 20 -3 11 -10 17 -17 14 -6 -3 -2 2 8 10 11 9 15 16 10 16 -11
0 -11 80 0 98 3 6 1 14 -5 18 -8 5 -9 3 -4 -6 5 -9 4 -11 -4 -6 -8 5 -9 12 -3
19 5 7 8 22 6 35 -2 12 1 22 6 22 7 0 7 7 0 20 -6 11 -8 20 -4 20 3 0 0 8 -7
17 -10 11 -10 14 -1 9 7 -4 12 -2 13 6 2 15 1 16 -6 57 -3 17 -1 31 4 31 5 0
7 9 4 20 -3 11 -10 17 -17 14 -6 -3 -2 2 8 10 11 9 15 16 10 16 -11 0 -11 80
0 98 3 6 1 14 -5 18 -8 5 -9 3 -4 -6 5 -9 4 -11 -4 -6 -8 5 -9 12 -3 19 5 7 8
22 6 35 -2 12 0 22 5 22 5 0 7 9 4 20 -3 11 -10 17 -17 14 -6 -3 -2 2 8 10 11
9 15 16 10 16 -11 0 -11 80 0 98 3 6 1 14 -5 18 -8 5 -9 3 -4 -6 5 -9 4 -11
-4 -6 -8 5 -9 12 -3 19 5 7 8 22 6 35 -2 12 0 22 5 22 5 0 7 9 4 20 -3 11 -10
17 -17 14 -6 -3 -2 2 8 10 11 9 15 16 9 16 -12 0 -11 39 1 59 7 10 6 12 -4 6
-8 -5 -11 -4 -6 3 9 15 1076 14 1076 0z m415 -3118 c3 -5 1 -10 -4 -10 -6 0
-11 5 -11 10 0 6 2 10 4 10 3 0 8 -4 11 -10z m820 -2588 c-3 -3 -11 0 -18 7
-9 10 -8 11 6 5 10 -3 15 -9 12 -12z m-5364 -1339 c13 -16 12 -17 -3 -4 -17
13 -22 21 -14 21 2 0 10 -8 17 -17z"/>
<path d="M10599 5903 c-13 -16 -12 -17 4 -4 9 7 17 15 17 17 0 8 -8 3 -21 -13z"/>
<path d="M9290 3065 c0 -5 5 -17 10 -25 5 -8 10 -10 10 -5 0 6 -5 17 -10 25
-5 8 -10 11 -10 5z"/>
<path d="M2010 8266 c0 -2 8 -10 18 -17 15 -13 16 -12 3 4 -13 16 -21 21 -21
13z"/>
</g>
</svg>
